<svg width="21" height="33" viewBox="0 0 21 33" fill="none" xmlns="http://www.w3.org/2000/svg">
<g clip-path="url(#clip0_601_1005)">
<path d="M19.5228 0.179703C20.0761 0.179703 20.5235 0.622292 20.5235 1.16967V31.1569C20.5235 31.7038 20.0761 32.1468 19.5228 32.1468H1.60372C1.05099 32.1468 0.603516 31.7038 0.603516 31.1569V1.16967C0.603516 0.622292 1.05099 0.179703 1.60372 0.179703H19.5228Z" fill="white"/>
<path d="M0.992432 4.62502H20.1476V31.0969C20.1476 31.3171 20.11 31.4532 19.9615 31.6009C19.8003 31.761 19.659 31.7754 19.4038 31.7754L1.56436 31.7771C1.42379 31.7771 1.31598 31.7323 1.19962 31.634C1.0555 31.5104 0.992432 31.3565 0.992432 31.1936V4.62502Z" fill="#FFF200"/>
<path d="M20.1476 3.29319H0.992432V4.65319H20.1476V3.29319Z" fill="#ED1C24"/>
<path d="M20.1476 1.93045H0.992432V3.29051H20.1476V1.93045Z" fill="white"/>
<path d="M1.53393 0.547119H19.5936C19.8828 0.547119 20.1495 0.825926 20.1495 1.09804V1.96623H0.992432L0.994177 1.20271V1.13918C0.994177 0.831337 1.23138 0.577548 1.53393 0.547119Z" fill="#009A4E"/>
<path d="M19.5228 0.179703C20.0761 0.179703 20.5235 0.622292 20.5235 1.16967V31.1569C20.5235 31.7038 20.0761 32.1468 19.5228 32.1468H1.60372C1.05099 32.1468 0.603516 31.7038 0.603516 31.1569V1.16967C0.603516 0.622292 1.05099 0.179703 1.60372 0.179703H19.5228ZM19.5228 0.574874H1.60372C1.27162 0.574874 1.00317 0.841579 1.00317 1.16967V31.1569C1.00317 31.4854 1.27168 31.7503 1.60372 31.7503H19.5228C19.855 31.7503 20.1235 31.4854 20.1235 31.1569V1.16967C20.1235 0.841637 19.855 0.574874 19.5228 0.574874Z" fill="black"/>
<path d="M10.2111 6.30508C10.2111 6.30508 10.199 6.42052 10.1727 6.48812C10.1467 6.55073 10.0791 6.59285 10.0836 6.63486C10.0881 6.67605 10.1319 6.72574 10.2 6.76012C10.2666 6.79503 10.2934 6.82191 10.3619 6.83937C10.4255 6.85508 10.506 6.90156 10.5289 6.84833C10.5517 6.79416 10.5173 6.72836 10.4788 6.66529C10.4116 6.55521 10.3776 6.52833 10.2787 6.37706C10.2577 6.34447 10.2411 6.30951 10.2111 6.30508Z" fill="black"/>
<path d="M9.70946 18.1982C9.71615 18.1785 9.87458 18.2788 9.95691 18.3271C10.1301 18.4309 10.208 18.4927 10.361 18.6072C10.4823 18.6994 10.5409 18.7469 10.6627 18.8516C10.8121 18.9805 10.8927 19.0905 10.933 19.0655C10.9912 18.9957 10.8377 18.7916 10.702 18.6807C10.5701 18.5714 10.4336 18.4829 10.3284 18.4139C10.1928 18.3235 10.1807 18.3029 9.97797 18.1668C9.76002 18.021 9.57209 17.8375 9.57209 17.8375L9.36037 17.6711L9.02879 17.3913L8.66003 17.0517L8.38169 16.7415C8.38169 16.7415 8.16508 16.4766 8.13064 16.4255C8.09573 16.375 7.99368 16.2111 7.9096 16.0725C7.83437 15.948 7.68851 15.7547 7.67507 15.7382C7.59629 15.6428 7.4164 15.6813 7.20735 15.5583C6.95362 15.4083 6.89229 15.2714 6.89229 15.2714C6.89229 15.2714 6.88287 15.2513 6.87304 15.2405C6.86361 15.2293 6.84441 15.2155 6.84441 15.2155L6.71147 15.1228L6.63536 15.0727C6.63536 15.0727 6.57765 15.0248 6.50515 14.9939C6.43219 14.9617 6.26975 14.8672 6.26975 14.8672L5.97931 14.682C5.97931 14.682 5.86562 14.5907 5.82803 14.5603C5.78957 14.5312 5.71795 14.4896 5.71795 14.4896C5.71795 14.4896 5.67228 14.4667 5.65843 14.4658C5.64459 14.4649 5.58419 14.4596 5.58419 14.4596C5.58419 14.4596 5.52822 14.4448 5.47138 14.5115C5.41453 14.5787 5.42844 14.5428 5.52107 14.9205C5.55772 15.0691 5.55417 15.5932 5.59356 15.7529C5.64366 15.9579 5.78777 16.2228 5.80255 16.2541C5.81692 16.285 5.82716 16.3996 5.82716 16.3996C5.82716 16.3996 5.82093 16.4923 5.83077 16.5509C5.87464 16.8216 6.27068 16.6435 6.35801 17.015C6.44395 17.3815 6.30652 17.7471 6.30652 17.7471C6.30652 17.7471 6.22146 17.9289 6.10108 17.9574C5.98117 17.9853 5.79499 17.7194 5.66029 17.5042C5.52741 17.2924 5.41867 17.015 5.38376 16.9268C5.34885 16.8386 5.33046 16.8194 5.2902 16.7554C5.23068 16.66 5.1828 16.6776 5.11612 16.5272C5.04898 16.3768 5.1085 16.3164 5.07853 16.1853C5.06108 16.1128 5.04543 16.1047 5.02262 16.0008C5.00069 15.8975 4.97113 15.5686 4.97113 15.5686L4.92907 15.2625C4.92907 15.2625 4.91429 15.1228 4.89509 15.0351C4.82841 14.729 4.80514 14.4327 4.80514 14.4327L4.79263 14.311L4.78815 14.1853C4.78815 14.1853 4.78413 14.1248 4.79891 14.0626C4.81369 14.0005 4.84371 13.949 4.84371 13.949C4.84371 13.949 4.9055 13.8456 4.91621 13.8197C4.92651 13.7951 5.0527 13.6483 5.0527 13.6483C5.0527 13.6483 5.11891 13.5932 5.22678 13.5274C5.33512 13.4616 5.43222 13.4661 5.43222 13.4661C5.43222 13.4661 5.46085 13.4634 5.65244 13.4872C5.84397 13.5108 6.23781 13.6156 6.33718 13.6411C6.43516 13.6676 6.55245 13.7087 6.6285 13.7512C6.84732 13.8702 6.91359 13.8197 6.73951 13.6832C6.62222 13.5915 6.58917 13.5503 6.49468 13.4644C6.41497 13.391 6.35237 13.3422 6.29285 13.2746C6.23333 13.2057 6.06373 12.9556 6.06373 12.9556L5.95766 12.7989C5.95766 12.7989 5.90082 12.7345 5.89139 12.73C5.88249 12.7246 5.85381 12.7027 5.85381 12.7027C5.85381 12.7027 5.78358 12.7062 5.71103 12.6924C5.63766 12.6776 5.60363 12.7806 5.60363 12.7806C5.60363 12.7806 5.44607 13.0746 5.28589 13.2546C5.02635 13.5467 4.84016 13.7455 4.74486 13.9012C4.61104 14.1169 4.6406 14.3533 4.57165 14.4624C4.53139 14.5264 4.50946 14.5358 4.48752 14.5917C4.42038 14.7614 4.66428 14.8544 4.60837 15.0424C4.51929 15.3405 3.82117 15.6354 3.72848 15.5861C3.63225 15.5356 3.71103 15.1324 3.74326 15.0021C3.77637 14.871 3.87435 14.6777 3.88336 14.6678C3.89186 14.6584 3.9156 14.6127 3.92269 14.5743C3.93032 14.5358 3.93299 14.4486 3.93747 14.4002C3.94195 14.3514 3.96208 14.2745 3.96208 14.2745C3.96208 14.2745 3.96476 14.2579 4.02649 14.1241C4.08869 13.9894 4.31606 13.6761 4.47897 13.3772C4.58637 13.1821 4.63112 13.0639 4.73852 12.8683C4.83743 12.6889 5.00703 12.415 5.00703 12.415C5.00703 12.415 5.07859 12.2754 5.11216 12.2235C5.1462 12.1702 5.21776 12.0695 5.28491 11.9701C5.35251 11.8712 5.36904 11.7969 5.45718 11.7155C5.53014 11.6475 5.57983 11.6112 5.67513 11.5808C5.81698 11.5338 5.91414 11.5589 6.05913 11.5992C6.20947 11.6403 6.31286 11.7092 6.41136 11.7907C6.50934 11.8731 6.5823 11.9639 6.5823 11.9639L6.63019 12.0346L6.65968 12.052L6.75103 12.1107L6.96002 12.2489C6.96002 12.2489 7.4559 12.5864 7.48365 12.6047C7.51007 12.6222 7.59909 12.6951 7.61654 12.701C7.63493 12.7063 7.76694 12.5631 8.02608 12.3846C8.32589 12.1764 8.43196 12.1921 8.53139 12.138C8.62937 12.0838 8.66963 12.0391 8.74667 11.9621C8.86303 11.8457 8.8639 11.7835 8.99592 11.6211C9.12886 11.4591 9.25325 11.3682 9.25325 11.3682C9.25325 11.3682 9.27158 11.3499 9.50838 11.0823C9.74466 10.8156 9.84939 10.6137 9.84939 10.6137L9.97919 10.3537C9.97919 10.3537 10.1671 9.94959 10.2276 9.78977C10.2884 9.62959 10.2884 9.5763 10.2884 9.5763C10.2884 9.5763 10.2973 9.53423 10.2517 9.45278C10.2047 9.37173 10.1564 9.40844 10.0664 9.42683C9.89413 9.46354 9.7894 9.41874 9.61532 9.38837C9.45602 9.3619 9.37276 9.31407 9.21299 9.28766C9.05101 9.26037 8.95659 9.23355 8.79408 9.2492C8.76947 9.25188 8.71984 9.26217 8.69605 9.2702C8.60429 9.30063 8.57881 9.30779 8.5108 9.34718C8.43202 9.38389 8.38012 9.39553 8.29285 9.39774C8.2324 9.39954 8.19574 9.40134 8.13983 9.37941C8.10131 9.36463 8.07938 9.35346 8.04895 9.32617C8.03062 9.30959 8.02079 9.29883 8.00688 9.27736C8.00514 9.26037 7.99973 9.26124 8.01631 9.23355C8.03243 9.20533 8.05256 9.20038 8.05256 9.20038L8.12685 9.18206C8.12685 9.18206 8.23158 9.15477 8.24142 9.15204C8.25084 9.14936 8.35062 9.11713 8.39443 9.10328C8.43877 9.08943 8.48712 9.06389 8.48712 9.06389C8.48712 9.06389 8.51394 9.02095 8.50364 8.99634C8.49067 8.96853 8.43115 8.96591 8.43115 8.96591C8.43115 8.96591 8.34789 8.99634 8.33852 8.99902C8.32956 9.00082 8.19661 9.04283 8.19661 9.04283C8.19661 9.04283 8.09235 9.06569 8.01136 9.08489C7.92991 9.10322 7.81355 9.11265 7.81355 9.11265L7.77864 9.10322C7.77864 9.10322 7.73925 9.07681 7.73302 9.04911C7.7272 9.0245 7.7236 9.00612 7.71912 8.97796C7.70166 8.87497 7.68066 8.81278 7.70527 8.71125C7.71469 8.66872 7.72453 8.64498 7.74285 8.60565C7.75851 8.57295 7.7688 8.55416 7.78893 8.52326L7.85299 8.41854L7.97384 8.23998C8.01544 8.19791 8.04278 8.17691 8.09509 8.14735C8.17206 8.10441 8.2168 8.09231 8.31304 8.08155C8.40747 8.07125 8.42044 8.07218 8.55426 8.04216C8.68895 8.01173 8.78431 7.95849 8.78431 7.95849C8.78431 7.95849 9.10611 7.84033 9.30207 7.74409C9.50745 7.64344 9.59699 7.53598 9.80959 7.45278C9.89954 7.41787 9.9519 7.40129 10.0445 7.37761C10.0562 7.36998 10.062 7.36283 10.0656 7.34892C10.0745 7.31535 10.0227 7.2997 9.98681 7.30325C9.95458 7.30593 9.88121 7.33996 9.86463 7.30325C9.85206 7.27509 9.93171 7.25851 9.93171 7.25851C9.93171 7.25851 9.9693 7.24105 9.97023 7.22005C9.97116 7.18782 9.91612 7.20882 9.89145 7.20614C9.76659 7.19224 9.75676 7.16943 9.67036 7.14843C9.56878 7.12294 9.51379 7.09158 9.40813 7.0871C9.31504 7.0835 9.22777 7.10322 9.16918 7.11707C9.11147 7.13185 9.10966 7.075 9.13247 7.06383C9.29584 6.98773 9.29939 6.98145 9.41488 6.97609C9.47795 6.97342 9.56616 6.98686 9.57599 6.99174C9.58541 6.9971 9.71161 6.99087 9.74384 6.95777C9.77695 6.92553 9.64045 6.92734 9.57599 6.9018C9.51653 6.87812 9.42565 6.87142 9.42745 6.83198C9.43059 6.79259 9.47446 6.81452 9.50576 6.80649C9.54509 6.79707 9.56796 6.798 9.60822 6.79265C9.68077 6.78281 9.687 6.77606 9.7944 6.76716C9.90047 6.75686 10.0535 6.80207 10.0535 6.80207C10.0535 6.80207 10.2142 6.87329 10.293 6.91087C10.3717 6.94753 10.467 6.96678 10.467 6.96678C10.467 6.96678 10.5789 6.98244 10.664 6.9292C10.7503 6.87637 10.7016 6.84146 10.6716 6.7927C10.642 6.74703 10.6045 6.68082 10.6595 6.5555C10.7083 6.44629 10.7337 6.31876 10.7477 6.30712C10.7652 6.29327 10.8327 6.39125 10.8765 6.43157C11.0336 6.57836 11.2413 6.65086 11.4373 6.95782C11.4526 6.98244 11.5251 6.94305 11.7524 6.97796C11.9797 7.01286 12.1785 7.2563 12.2286 7.31454C12.2806 7.37313 12.3477 7.36998 12.3477 7.36998L12.4569 7.38476L12.8533 7.39145C12.8533 7.39145 13.0333 7.35922 13.1371 7.39867C13.2096 7.42596 13.4512 7.58753 13.3412 7.64879C13.2642 7.69179 13.1917 7.59736 13.1219 7.59288C13.0395 7.58753 13.0037 7.60318 12.9303 7.6215C12.7763 7.66002 12.4461 7.7598 12.566 7.80006C12.5749 7.80361 12.592 7.80629 12.592 7.80629L12.651 7.81659C12.651 7.81659 12.7961 7.84969 12.8837 7.88414C13.0162 7.9365 13.0789 7.99428 13.2006 8.06584C13.2704 8.1061 13.3008 8.14642 13.3769 8.16923C13.4467 8.18942 13.4915 8.16923 13.5631 8.18133C13.657 8.19791 13.7098 8.21717 13.7958 8.2583C13.9237 8.31963 13.9703 8.39393 14.0849 8.47625C14.1422 8.51785 14.1904 8.52414 14.2334 8.58011C14.2433 8.59262 14.2514 8.59937 14.2559 8.61409C14.2711 8.66511 14.1717 8.63509 14.1189 8.62665C14.0608 8.61682 14.0366 8.58814 13.9829 8.56353C13.9033 8.52594 13.8656 8.48475 13.7788 8.4691C13.7161 8.457 13.6786 8.46642 13.6142 8.46997C13.5515 8.47265 13.5184 8.48207 13.4557 8.48294C13.3492 8.48475 13.2892 8.47538 13.1845 8.45339C13.0672 8.42884 13.009 8.38316 12.8927 8.35896C12.7611 8.33167 12.5284 8.21892 12.5508 8.33167C12.5624 8.38584 12.6859 8.43145 12.6859 8.43145C12.6859 8.43145 12.7709 8.47713 12.8515 8.51291C12.9321 8.54782 12.9768 8.60111 12.9768 8.60111L13.0323 8.6423C13.0323 8.6423 13.0895 8.72108 13.1648 8.8101C13.2381 8.89784 13.3688 8.8951 13.3688 8.8951C13.3688 8.8951 13.4476 8.8951 13.6176 8.93001C13.7868 8.96492 13.9613 9.06959 13.9613 9.06959C13.9613 9.06959 14.0929 9.16001 14.1699 9.25089C14.246 9.34177 14.2021 9.38738 14.1923 9.39675C14.1833 9.40658 14.1868 9.4021 14.1761 9.40658C14.1672 9.41106 14.0723 9.29202 14.0723 9.29202L14.0043 9.2343C14.0043 9.2343 13.9381 9.18776 13.8522 9.16001C13.7662 9.13272 13.7376 9.15105 13.7376 9.15105C13.7376 9.15105 13.555 9.20207 13.3957 9.19759C13.2381 9.19311 13.1558 9.12998 13.1558 9.12998L13.0556 9.06284C13.0556 9.06284 12.9052 8.92187 12.8997 8.9886C12.8961 9.03381 12.966 9.0839 12.966 9.0839C12.966 9.0839 13.0144 9.13266 13.0466 9.16361C13.1075 9.22354 13.1326 9.25356 13.2023 9.3157C13.2722 9.37842 13.3151 9.37842 13.3151 9.37842C13.3151 9.37842 13.3527 9.38732 13.367 9.39006C13.3814 9.39273 13.4064 9.39948 13.4064 9.39948C13.4064 9.39948 13.4297 9.40844 13.5389 9.45278C13.6471 9.49659 13.7644 9.59195 13.7644 9.59195C13.7644 9.59195 13.7752 9.60091 13.7913 9.60405C13.8074 9.60585 13.8396 9.62197 13.8486 9.62465C13.8584 9.62686 13.8862 9.62686 13.9488 9.63582C14.0124 9.64524 13.9882 9.6855 13.9882 9.6855L13.9774 9.70069L13.9255 9.7356C13.9255 9.7356 13.8584 9.75486 13.8127 9.75707C13.7662 9.75974 13.7 9.73385 13.7 9.73385L13.5594 9.68102C13.5594 9.68102 13.4172 9.64344 13.3867 9.63849C13.3562 9.63401 13.2292 9.60853 13.2077 9.60405C13.1871 9.59916 13.1236 9.5763 13.1066 9.56646C13.0895 9.5571 13.0582 9.55081 12.9813 9.51323C12.9052 9.47564 12.8747 9.43224 12.7799 9.40222C12.6841 9.37179 12.6259 9.36556 12.5543 9.41525C12.4308 9.50025 12.7404 9.51416 12.8944 9.59108C13.1218 9.70296 13.2498 9.78529 13.3035 9.90619C13.358 10.0274 13.4127 10.0713 13.4127 10.0713C13.4127 10.0713 13.5729 10.1519 13.6445 10.2364C13.6839 10.282 13.6893 10.3197 13.7286 10.3653C13.8163 10.4682 13.9864 10.4624 14.0204 10.5497C14.0527 10.6311 13.8825 10.5944 13.7939 10.5863C13.6346 10.5707 13.5961 10.4248 13.4475 10.3662C13.3635 10.3326 13.3097 10.3326 13.2238 10.3031C13.0671 10.2516 12.9938 10.1841 12.8371 10.1353C12.7422 10.1062 12.5703 9.98136 12.5918 10.0775C12.5954 10.1008 12.6097 10.1187 12.6159 10.1326C12.624 10.1465 12.6634 10.1975 12.6634 10.1975C12.6634 10.1975 12.7162 10.2673 12.7403 10.2857C12.7627 10.305 12.8638 10.381 13.0088 10.4598C13.1521 10.5386 13.2773 10.6898 13.2773 10.6898C13.2773 10.6898 13.3203 10.7516 13.3409 10.7946C13.3624 10.843 13.3472 10.8577 13.3812 10.9248C13.4125 10.9915 13.4277 11.0045 13.4707 11.0457C13.5763 11.1473 13.6873 11.1271 13.8215 11.1822C13.8582 11.1978 13.8609 11.2032 13.9003 11.2452C13.9397 11.2868 13.8931 11.3047 13.8931 11.3047C13.8931 11.3047 13.7437 11.3432 13.647 11.3351C13.5217 11.3253 13.4653 11.2868 13.3436 11.2259C13.22 11.1655 13.1556 11.0568 13.1431 11.0501C13.1324 11.0429 13.1019 11.0107 13.0787 10.9941C13.0554 10.9776 12.9954 10.965 12.9417 10.9503C12.8871 10.9355 12.8566 10.9328 12.8021 10.918C12.7278 10.897 12.6508 10.8643 12.6159 10.8532C12.581 10.8411 12.5013 10.8267 12.4431 10.8612C12.3268 10.9301 12.6239 10.9766 12.7161 11.0756C12.7635 11.1253 12.7832 11.1602 12.828 11.2125C12.862 11.2528 12.8764 11.281 12.9185 11.3123C12.947 11.3333 12.9999 11.3561 12.9999 11.3561C12.9999 11.3561 13.0714 11.3893 13.1762 11.447C13.2809 11.5047 13.4035 11.668 13.4035 11.668L13.4778 11.7817L13.5216 11.8466L13.5333 11.8766L13.5493 11.9133C13.5493 11.9133 13.6031 11.9831 13.6424 12.0059C13.6819 12.0296 13.6747 12.0502 13.6747 12.0502C13.6747 12.0502 13.6702 12.0646 13.6424 12.0803C13.6156 12.0968 13.6004 12.0829 13.561 12.0713C13.5216 12.0601 13.4957 12.0226 13.4617 11.9952C13.4259 11.9666 13.3883 11.8972 13.3248 11.8578C13.2684 11.8239 13.195 11.8118 13.1663 11.8028C13.1386 11.7926 13.0688 11.7487 13.041 11.7366C13.0142 11.7258 12.9417 11.6927 12.9417 11.6927C12.9417 11.6927 12.8021 11.6149 12.725 11.5939C12.6481 11.5723 12.6973 11.6194 12.6973 11.6194C12.6973 11.6194 12.7663 11.7268 12.8324 11.7697C12.9184 11.8265 13.0392 11.8767 12.9998 11.9227C12.9729 11.9527 12.9372 11.942 12.8978 11.9375C12.8334 11.9299 12.7555 11.8529 12.7555 11.8529C12.7555 11.8529 12.7233 11.8319 12.5792 11.7862C12.4359 11.7392 12.4887 11.818 12.5219 11.8605C12.5541 11.9017 12.598 11.9254 12.598 11.9254L12.6956 11.9693L12.7403 11.9831C12.7403 11.9831 12.7798 11.9903 12.9095 12.0207C13.0393 12.0502 13.1109 12.1134 13.1109 12.1134C13.1109 12.1134 13.1807 12.1782 13.2773 12.2499C13.3758 12.3224 13.4725 12.3407 13.5262 12.3479C13.5799 12.3546 13.5781 12.3922 13.5781 12.3922C13.5781 12.3922 13.5852 12.4267 13.5817 12.4379C13.5799 12.4495 13.5683 12.4589 13.5566 12.4589C13.5459 12.4589 13.5406 12.4634 13.5262 12.471C13.5119 12.4782 13.4564 12.4871 13.4564 12.4871C13.4564 12.4871 13.3114 12.4827 13.1969 12.4544C13.0841 12.4267 12.9838 12.3479 12.9731 12.3435C12.9641 12.339 12.8585 12.2804 12.7851 12.2571C12.7144 12.2334 12.6007 12.2437 12.5882 12.2482C12.5766 12.2527 12.5372 12.2589 12.4701 12.2786C12.4021 12.2965 12.4871 12.3224 12.4871 12.3224L12.5354 12.3269L12.6508 12.3359C12.6508 12.3359 12.7708 12.3497 12.8719 12.3873C12.9731 12.424 13.0393 12.4983 13.1065 12.5663C13.1735 12.633 13.2479 12.6769 13.2479 12.6769L13.3016 12.7118L13.3294 12.7328L13.3365 12.7511C13.3365 12.7511 13.3338 12.7605 13.3294 12.7721C13.3249 12.7842 13.3079 12.7931 13.3079 12.7931C13.3079 12.7931 13.2828 12.7886 13.2721 12.7886C13.2595 12.7886 13.1835 12.7484 13.1271 12.7238C13.0689 12.6983 13.0394 12.6741 12.9767 12.6588C12.923 12.6459 12.8515 12.64 12.8353 12.645C12.8192 12.6495 12.701 12.666 12.6097 12.6723C12.5185 12.6794 12.4396 12.6808 12.3322 12.6678C12.1792 12.6495 11.976 12.5286 11.95 12.5622C11.8973 12.6329 12.0584 12.653 12.1372 12.6982C12.2446 12.7604 12.4307 12.8164 12.4307 12.8164C12.4307 12.8164 12.5668 12.8463 12.6464 12.8839C12.821 12.965 12.8738 13.0849 13.0143 13.2111C13.0913 13.2818 13.1539 13.3122 13.2577 13.3275C13.3473 13.3405 13.3455 13.3297 13.4869 13.302C13.6292 13.2738 13.7152 13.1391 13.7563 13.1883C13.7644 13.1978 13.7608 13.2067 13.759 13.2206C13.7563 13.2344 13.7447 13.26 13.7447 13.26C13.7447 13.26 13.7286 13.2828 13.7035 13.3087C13.6776 13.3342 13.58 13.3875 13.529 13.4085C13.478 13.4296 13.3527 13.4645 13.1951 13.4595C13.0376 13.455 12.8157 13.3342 12.8157 13.3342L12.6564 13.2671C12.6564 13.2671 12.5829 13.2326 12.5328 13.2138C12.4004 13.1637 12.3162 13.1682 12.1801 13.1324C12.096 13.1096 12.0406 13.0858 11.9645 13.0702C11.8875 13.0536 11.9314 13.0841 11.9385 13.0948C11.9743 13.1435 12.0226 13.1592 12.0835 13.1874C12.1641 13.2268 12.2205 13.2188 12.3028 13.2537C12.395 13.2909 12.4756 13.3432 12.5266 13.3763C12.5767 13.4086 12.6144 13.4453 12.6636 13.4963L12.8327 13.6413C12.8327 13.6413 12.8721 13.6735 12.8766 13.687C12.881 13.7009 12.8998 13.7357 12.8909 13.7917C12.881 13.8477 12.8354 13.8083 12.8354 13.8083L12.7907 13.7796L12.7459 13.7384L12.6751 13.6799C12.6751 13.6799 12.6143 13.6248 12.5095 13.5715C12.4057 13.5174 12.2804 13.5039 12.2804 13.5039C12.2804 13.5039 12.1694 13.4874 12.173 13.5223C12.1783 13.5567 12.2033 13.5599 12.291 13.5827C12.3797 13.6056 12.4378 13.6503 12.4378 13.6503C12.4378 13.6503 12.5283 13.7174 12.5936 13.7917C12.658 13.866 12.6768 13.9381 12.6768 13.9381C12.6768 13.9381 12.71 13.9989 12.7932 14.0795C12.8765 14.1609 12.9203 14.1327 12.9158 14.1721C12.9113 14.2115 12.8746 14.2187 12.8746 14.2187C12.8746 14.2187 12.8531 14.2168 12.8442 14.2168C12.8353 14.2168 12.8138 14.2048 12.7905 14.1958C12.7673 14.1869 12.6795 14.126 12.6795 14.126C12.6795 14.126 12.5417 14.0142 12.5265 14.0034C12.5095 13.9913 12.3797 13.8942 12.3797 13.8942C12.3797 13.8942 12.3027 13.845 12.2481 13.8172C12.1917 13.7899 12.1174 13.7613 12.0754 13.7474C12.0342 13.734 11.9572 13.7295 11.9572 13.7295C11.9572 13.7295 11.865 13.7156 11.8087 13.6946C11.72 13.6605 11.6171 13.5661 11.6055 13.5616C11.5929 13.5567 11.5106 13.5285 11.4945 13.5312C11.4784 13.533 11.4408 13.6888 11.4319 13.7787C11.3943 14.1556 11.4945 14.4057 11.6502 14.7512C11.8749 15.2533 12.5005 15.8776 12.5005 15.8776C12.5005 15.8776 12.6581 15.9667 12.7243 16.0199C12.9114 16.1663 13.2211 16.3735 13.4959 16.6474C13.7303 16.8823 14.0419 17.2989 14.0419 17.2989C14.0419 17.2989 14.2226 17.5505 14.3068 17.7286C14.4089 17.947 14.4912 18.28 14.4912 18.28C14.4912 18.28 14.4984 18.3373 14.5038 18.3498C14.5109 18.3614 14.527 18.3766 14.5378 18.3766L14.6469 18.3803C14.6577 18.3803 14.7821 18.3714 14.8645 18.3507C14.9459 18.3301 15.1393 18.2415 15.2681 18.1744C15.3952 18.1063 15.5483 17.9775 15.5483 17.9775C15.5483 17.9775 15.5778 17.9524 15.7264 17.7859C15.8768 17.6195 15.9735 17.3698 16.0101 17.2753C16.046 17.1818 16.0755 17.0015 16.097 16.6935C16.1202 16.3843 16.0782 16.0584 16.0782 16.0584C16.0782 16.0584 16.0218 15.6038 15.9877 15.4489C15.9538 15.295 15.8714 15.0425 15.8714 15.0425C15.8714 15.0425 15.8142 14.818 15.7963 14.6761C15.7774 14.5342 15.7748 14.3033 15.7748 14.3033C15.7748 14.3033 15.7748 14.1619 15.8204 13.9005C15.8678 13.6405 16.0272 13.3782 16.0272 13.3782C16.0272 13.3782 16.0719 13.29 16.2439 13.0842C16.4201 12.8734 16.4765 12.8403 16.6501 12.7145C16.788 12.6156 16.9661 12.4563 17.0244 12.4939C17.0888 12.5341 16.9616 12.6147 16.9187 12.6568C16.8104 12.7642 16.6081 12.9539 16.4443 13.2399C16.3011 13.4874 16.2474 13.6512 16.2117 13.8127C16.1758 13.9739 16.1911 14.1511 16.1956 14.2115C16.201 14.272 16.234 14.25 16.234 14.25C16.234 14.25 16.5822 13.9703 16.771 13.7586C16.976 13.5295 17.1586 13.1218 17.2302 13.1182C17.2785 13.1151 17.3009 13.2243 17.2893 13.2749C17.2446 13.4865 17.2294 13.5129 17.1603 13.6534C17.0816 13.8146 17.0083 13.8862 16.899 14.0348C16.7844 14.1905 16.7281 14.25 16.6359 14.4563C16.5027 14.753 16.5804 14.9822 16.5804 14.9822C16.5804 14.9822 16.5966 15.1214 16.6592 15.1196C16.764 15.116 16.9939 14.8255 17.1443 14.5878C17.2554 14.4138 17.2956 14.2124 17.3682 14.1067C17.4344 14.0132 17.4926 14.2589 17.4639 14.4039C17.4308 14.5762 17.3458 14.7311 17.1587 14.975C16.9761 15.213 16.9815 15.4395 16.9815 15.4395C16.9815 15.4395 16.9627 15.5429 16.9474 15.7685C16.9332 15.9931 16.9976 16.3342 16.9976 16.3342C16.9976 16.3342 17.0548 16.6192 17.0665 16.8354C17.0773 17.0528 17.0701 17.5465 16.8669 17.9309C16.7863 18.0849 16.6135 18.2979 16.6135 18.2979C16.6135 18.2979 16.4802 18.4349 16.371 18.5145C16.2617 18.5942 15.9995 18.7186 15.9995 18.7186C15.9995 18.7186 15.8179 18.7812 15.7928 18.7867C15.7659 18.7938 15.7498 18.8162 15.7498 18.8162C15.7498 18.8162 15.7659 18.8511 15.7731 18.8654C15.7793 18.8798 15.8303 19.005 15.8303 19.005C15.8303 19.005 15.8849 19.1822 15.9055 19.3228C15.9261 19.4633 15.9019 19.4955 15.8823 19.6029C15.8625 19.7059 15.8179 19.6584 15.8062 19.8607C15.7963 20.0398 15.8769 20.1292 15.8625 20.3298C15.8564 20.4175 15.7569 20.2188 15.7086 20.1347C15.6065 19.952 15.6307 19.671 15.6289 19.6012C15.6262 19.5314 15.6208 19.4543 15.5949 19.3667C15.5636 19.252 15.5161 19.1635 15.4633 19.0937C15.4096 19.0247 15.3532 18.9854 15.3344 18.9926C15.3156 18.9988 15.3138 19.0355 15.3138 19.0534C15.3129 19.0731 15.3505 19.1394 15.3586 19.1537C15.3684 19.1671 15.4355 19.2898 15.4355 19.2898C15.4355 19.2898 15.465 19.3846 15.4767 19.5691C15.4884 19.7517 15.4319 19.979 15.4319 19.979C15.4319 19.979 15.3585 20.2341 15.2816 20.3845C15.1955 20.55 15.005 20.7756 15.005 20.7756C15.005 20.7756 14.868 20.9009 14.7651 21.1068C14.664 21.3126 14.7508 21.4022 14.7132 21.429C14.6738 21.4549 14.5932 21.3099 14.5717 21.2124C14.5511 21.1211 14.5609 21.0781 14.5986 20.976C14.6335 20.8776 14.7159 20.7352 14.7159 20.7352L14.8385 20.5267C14.8385 20.5267 14.9871 20.2439 15.0336 20.038C15.0802 19.8339 15.0265 19.6066 15.0265 19.6066C15.0265 19.6066 15.0202 19.5314 14.9692 19.535C14.9173 19.5377 14.8815 19.5825 14.86 19.637C14.8179 19.7498 14.8779 19.7293 14.8134 19.9172C14.7634 20.0648 14.749 20.0452 14.7221 20.1329C14.6899 20.2376 14.6729 20.345 14.6748 20.4104C14.6774 20.4748 14.6416 20.448 14.6416 20.448C14.6416 20.448 14.579 20.3316 14.579 20.1866C14.579 20.1078 14.5826 20.0631 14.5916 19.9843C14.6059 19.8581 14.6578 19.6648 14.6578 19.6648C14.6578 19.6648 14.7133 19.4741 14.7016 19.3005C14.6883 19.125 14.6274 19.0929 14.6274 19.0929C14.6274 19.0929 14.6113 19.0696 14.5433 19.0731C14.4762 19.0786 14.4797 19.1993 14.4797 19.1993C14.4797 19.1993 14.4591 19.3721 14.4323 19.4795C14.358 19.7757 14.2587 19.9315 14.0832 20.1812C13.9239 20.4068 13.7082 20.6055 13.5998 20.6986C13.4924 20.7935 13.1613 21.0343 13.1613 21.0343L12.7728 21.2929C12.7728 21.2929 12.6189 21.4433 12.549 21.6223C12.4775 21.8005 12.481 21.9401 12.5221 22.1038C12.5634 22.2685 12.6224 22.3437 12.6537 22.3902C12.6842 22.4351 12.7442 22.5155 12.7639 22.6105C12.7764 22.6686 12.7675 22.7035 12.771 22.7626C12.7747 22.8145 12.7818 22.8431 12.78 22.896C12.7782 22.9783 12.7934 23.0364 12.746 23.1036C12.7119 23.1546 12.6188 23.1993 12.6188 23.1993C12.6188 23.1993 12.5133 23.2458 12.4505 23.2843C11.7899 23.6827 11.5555 23.9413 11.1831 24.3853C11.065 24.5276 11.1518 24.5187 11.0256 24.6869C10.9491 24.7872 10.7723 24.7872 10.7083 24.9071C10.6193 25.0709 10.9088 25.232 10.5745 25.3762C10.1436 25.5623 9.40197 25.4289 9.38719 25.3708C9.34693 25.2114 9.53218 25.0271 9.59798 24.9537C9.8996 24.6243 10.169 24.6162 10.2679 24.3433C10.2894 24.2851 10.2809 24.235 10.5212 24.0568C10.6899 23.9324 11.3639 23.4249 11.6584 23.0866C11.7596 22.9702 11.8464 22.8933 11.8902 22.7679C11.935 22.6407 11.8464 22.5611 11.8464 22.5611L11.7255 22.3642L11.4937 21.9498C11.4937 21.9498 11.3962 21.7296 11.3434 21.6025C11.2888 21.4754 11.1876 21.1334 11.1876 21.1334C11.1876 21.1334 11.1134 20.8256 11.1008 20.625C11.0784 20.2652 11.1276 20.0558 11.2226 19.7067C11.3452 19.2539 11.6235 19.0641 11.7345 18.6147C11.7668 18.4841 11.7739 18.2603 11.7077 18.271C11.645 18.2827 11.6396 18.459 11.5913 18.5772C11.4123 19.0229 11.176 19.2181 11.0462 19.6799C10.9594 19.9922 10.9237 20.1776 10.9245 20.5016C10.9255 20.6868 10.9182 20.6528 10.9657 20.9742C10.9845 21.0923 11.0131 21.1558 11.048 21.2712C11.0731 21.3536 11.1402 21.5076 11.1402 21.5076C11.1402 21.5076 11.2324 21.7108 11.2647 21.8531C11.2744 21.9023 11.2871 21.93 11.2834 21.9793C11.2772 22.0643 11.2924 22.0822 11.2512 22.1592C11.2002 22.255 11.2314 22.3114 11.0686 22.3471C10.9236 22.3775 10.6273 22.2809 10.6273 22.2809C10.6273 22.2809 9.40959 21.9121 8.63222 22.0186C8.47827 22.0392 8.39548 22.0956 8.24066 22.0929C8.09968 22.0911 8.02806 21.981 7.88709 22.0231C7.85846 22.0312 7.8495 22.0517 7.82355 22.0687C7.61771 22.2119 7.7752 22.45 7.23283 22.3265C6.89986 22.2504 6.49666 22.0464 6.56642 21.9183C6.65992 21.7483 6.78524 21.7205 7.04845 21.6122C7.32994 21.4976 7.7524 21.5299 7.83565 21.5245C7.93724 21.5164 8.08316 21.4457 8.2648 21.4413C8.57899 21.4358 8.6349 21.4735 8.6349 21.4735L9.16831 21.5208L10.1892 21.5335C10.1892 21.5335 10.3717 21.52 10.4442 21.5057C10.5177 21.4913 10.5754 21.3472 10.6156 21.2783C10.655 21.2103 10.6138 21.11 10.6138 21.11L10.5835 21.0626L10.4863 20.906L10.3069 20.6034L10.1077 20.2061C10.1077 20.2061 9.9775 19.9295 9.90815 19.7478C9.8392 19.567 9.79894 19.4649 9.75327 19.2779C9.70539 19.0854 9.67583 18.9297 9.6696 18.7749C9.66204 18.5526 9.64726 18.3799 9.70946 18.1982Z" fill="black"/>
<path d="M16.3364 17.8294C16.5511 17.5538 16.5719 17.2977 16.5843 16.9371C16.5941 16.6748 16.4949 16.2707 16.4949 16.2707L16.4814 16.2411C16.4814 16.2411 16.4438 16.1923 16.4206 16.2568C16.4242 16.3137 16.4314 16.3593 16.4314 16.3593L16.4439 16.8798C16.4439 16.8798 16.4277 17.142 16.3383 17.4123C16.1879 17.8688 15.7887 18.072 15.7306 18.2367C15.6311 18.5097 16.0795 18.1615 16.3364 17.8294Z" fill="white"/>
<path d="M14.0845 18.6717C14.0845 18.6717 13.9968 18.6968 13.995 18.7836C13.9932 18.8704 14.0164 18.9456 14.0138 19.0503C14.012 19.1837 13.8894 19.3376 13.9681 19.3878C14.1033 19.4737 14.2196 18.8686 14.1785 18.7791C14.1373 18.6895 14.097 18.6708 14.0845 18.6717Z" fill="white"/>
<path d="M12.5683 22.8668C12.5683 22.8668 12.5432 22.8534 12.494 22.8722C12.4457 22.891 12.4492 22.9412 12.4492 22.9412C12.4492 22.9412 12.4394 22.9949 12.4788 23.0003C12.5182 23.0075 12.5826 22.9108 12.5826 22.9C12.5826 22.8892 12.5683 22.8668 12.5683 22.8668Z" fill="white"/>
<path d="M11.1416 23.8809C11.1416 23.8809 11.1272 23.8953 11.1398 23.9051C11.1532 23.9168 11.172 23.9024 11.172 23.9024C11.172 23.9024 11.4181 23.71 11.5641 23.5748C11.718 23.4299 11.94 23.1801 11.94 23.1801C11.94 23.1801 11.9552 23.1613 11.9382 23.1452C11.9202 23.1291 11.8782 23.1541 11.8433 23.1702C11.8129 23.1864 11.795 23.2033 11.7718 23.2222C11.7503 23.2419 11.6769 23.3171 11.6769 23.3171L11.4871 23.5015L11.3671 23.6142L11.2508 23.7252L11.2025 23.7807C11.2025 23.7807 11.1899 23.8022 11.1864 23.8076C11.1827 23.8138 11.1703 23.8299 11.1703 23.8299C11.1703 23.8299 11.1523 23.847 11.1523 23.8523C11.1523 23.8568 11.147 23.8613 11.147 23.8667C11.1451 23.8738 11.1416 23.8809 11.1416 23.8809Z" fill="white"/>
<path d="M10.7159 24.1603C10.7159 24.1603 10.6895 24.1388 10.6479 24.1593C10.6059 24.1817 10.5611 24.2389 10.5575 24.2453C10.5535 24.2534 10.5306 24.2838 10.5463 24.3106C10.562 24.3375 10.6152 24.298 10.6233 24.2963C10.6309 24.2963 10.7003 24.2408 10.7003 24.2408C10.7003 24.2408 10.7406 24.2157 10.7159 24.1603Z" fill="white"/>
<path d="M9.90102 24.9855C9.90102 24.9855 9.86611 24.9211 9.82044 24.9479C9.77476 24.9748 9.74975 24.9837 9.70768 25.0418C9.70052 25.0517 9.65532 25.1099 9.64723 25.1251C9.6392 25.1395 9.59399 25.2254 9.68575 25.2316C9.8433 25.2405 9.73985 25.1395 9.79402 25.1C9.83789 25.0696 9.92022 25.0777 9.92115 25.0454C9.92202 25.0133 9.90102 24.9855 9.90102 24.9855Z" fill="white"/>
<path d="M7.10845 21.688C7.10845 21.688 7.01402 21.7113 7.00687 21.7436C6.99924 21.7775 7.06191 21.8098 7.07174 21.8115C7.08291 21.8133 7.10397 21.8384 7.16704 21.7954C7.22924 21.7534 7.22656 21.7176 7.22656 21.7176C7.22656 21.7176 7.26327 21.6746 7.10845 21.688Z" fill="white"/>
<path d="M8.6443 21.6379C8.6443 21.6379 8.64337 21.603 8.5767 21.6075C8.50868 21.6111 8.49437 21.6236 8.49256 21.6344C8.49035 21.6442 8.49617 21.6612 8.55656 21.6666C8.61789 21.6702 8.6425 21.6665 8.6443 21.6379Z" fill="white"/>
<path d="M10.0965 21.68C9.97436 21.679 10.0129 21.6827 9.93771 21.6863C9.80121 21.6934 9.72691 21.688 9.59222 21.679C9.40331 21.6665 9.11112 21.62 9.11112 21.62C9.11112 21.62 9.07441 21.6111 9.05963 21.6352C9.04619 21.6576 9.09541 21.7095 9.13928 21.723C9.3787 21.7973 9.39167 21.7848 9.55458 21.7874C9.64546 21.7883 9.69602 21.7793 9.78643 21.7739C9.90099 21.7651 9.95423 21.7829 10.0791 21.7498C10.1117 21.7417 10.1431 21.6809 10.0965 21.68Z" fill="white"/>
<path d="M10.9147 21.4374C10.9147 21.4374 10.8901 21.4088 10.8395 21.4339C10.7894 21.458 10.759 21.5126 10.759 21.5126C10.759 21.5126 10.7353 21.5502 10.7858 21.5449C10.8351 21.5377 10.8793 21.5163 10.891 21.5091C10.9039 21.5018 10.9407 21.4678 10.9147 21.4374Z" fill="white"/>
<path d="M10.2026 11.6181C10.2026 11.6181 10.5481 11.2946 10.7955 10.8668C10.9422 10.6116 11.0062 10.0178 10.8801 10.1654C10.8232 10.2331 10.7543 10.541 10.6451 10.7691C10.4894 11.094 10.1568 11.5541 10.1568 11.5541C10.1568 11.5541 10.0853 11.7072 10.2026 11.6181Z" fill="white"/>
<path d="M8.82155 12.4403C8.82155 12.4403 8.78484 12.4689 8.80142 12.5146C8.81887 12.5611 8.88916 12.5262 8.88916 12.5262C8.88916 12.5262 9.04893 12.4658 9.21631 12.4596C9.38411 12.4524 9.61684 12.5025 9.61684 12.5025C9.61684 12.5025 9.72779 12.5329 9.74618 12.5401C9.7645 12.5477 9.82495 12.5768 9.83525 12.5803C9.84421 12.5844 9.90193 12.6126 9.93416 12.5835C9.96639 12.5539 9.73233 12.3414 9.49338 12.3092C9.09547 12.255 8.83418 12.4264 8.83418 12.4264L8.82155 12.4403Z" fill="white"/>
<path d="M7.18267 13.8415C7.21083 13.8657 7.34377 13.6124 7.45473 13.4521C7.53618 13.3349 7.68484 13.1389 7.68484 13.1389C7.68484 13.1389 7.75192 13.0489 7.63829 13.0991C7.59221 13.1197 7.46601 13.2159 7.37694 13.3927C7.30171 13.543 7.15311 13.8178 7.18267 13.8415Z" fill="white"/>
<path d="M6.26345 12.741C6.26345 12.741 6.23476 12.839 6.34938 12.9616C6.46481 13.0847 6.49437 13.1862 6.56779 13.1129C6.58793 13.0927 6.49617 12.9272 6.44963 12.8811C6.40174 12.8354 6.36771 12.7978 6.36771 12.7978L6.33774 12.7732L6.29923 12.7517L6.27729 12.7428C6.27729 12.7428 6.27147 12.7374 6.26345 12.741Z" fill="white"/>
<path d="M5.89104 11.8012C5.89104 11.8012 5.76665 11.8244 5.73622 11.8848C5.70532 11.9453 5.8794 11.9086 5.8794 11.9086C5.8794 11.9086 5.99484 11.9148 5.99757 11.871C6.00025 11.8262 5.98285 11.8218 5.89104 11.8012Z" fill="white"/>
<path d="M3.91429 15.0771C3.85076 15.0588 3.84005 15.1837 3.8315 15.2239C3.82434 15.2642 3.86018 15.3447 3.8749 15.3447C3.88922 15.3438 3.93978 15.2651 3.94245 15.2266C3.94519 15.1872 3.97026 15.0946 3.91429 15.0771Z" fill="white"/>
<path d="M5.96727 17.5171C5.96727 17.5171 5.85358 17.4271 5.83613 17.4629C5.81914 17.4987 5.92968 17.6566 5.92968 17.6566C5.92968 17.6566 5.96366 17.7086 6.01602 17.6853C6.06746 17.6603 6.04913 17.6029 6.04913 17.6029C6.04913 17.6029 6.01422 17.5296 5.96727 17.5171Z" fill="white"/>
<path d="M5.11016 14.8784C5.11016 14.8784 5.08107 14.8708 5.07077 14.9057C5.06001 14.9406 5.06094 14.9974 5.05332 15.0663C5.04709 15.1201 5.06722 15.2633 5.06722 15.2633C5.06722 15.2633 5.07839 15.377 5.1012 15.4446C5.12581 15.5188 5.19115 15.6245 5.19115 15.6245C5.19115 15.6245 5.21576 15.6786 5.24619 15.676C5.27616 15.6728 5.269 15.6374 5.269 15.6374C5.269 15.6374 5.1737 15.2598 5.17102 15.2213C5.15979 15.0955 5.15979 14.9425 5.15979 14.9425L5.15892 14.9196C5.15892 14.9196 5.15799 14.8793 5.11016 14.8784Z" fill="white"/>
<path d="M5.25872 13.7261C5.25872 13.7261 5.20636 13.7162 5.15806 13.8169C5.10931 13.9189 5.11961 13.9601 5.12403 13.9646C5.12764 13.9691 5.16609 13.9682 5.22788 13.8738C5.28921 13.7802 5.2753 13.7444 5.2753 13.7444C5.2753 13.7444 5.27169 13.7261 5.25872 13.7261Z" fill="white"/>
<path d="M6.6989 14.7701C6.6989 14.7701 6.76197 14.8645 6.64119 14.8426C6.51994 14.8207 6.26528 14.6197 6.16142 14.5656C6.0589 14.5115 5.89018 14.4944 5.96093 14.4309C5.9739 14.4202 5.97745 14.4098 5.99758 14.409C6.01864 14.4081 6.08846 14.4354 6.09288 14.4385C6.09649 14.4402 6.27592 14.5145 6.28261 14.5163C6.2889 14.519 6.38961 14.562 6.46117 14.604C6.5328 14.6465 6.6491 14.7279 6.6491 14.7279L6.6989 14.7701Z" fill="white"/>
<path d="M10.0558 17.6603C10.0889 17.7641 9.67362 17.441 9.45119 17.2696C8.86181 16.8157 8.14035 15.8854 8.2303 15.803C8.3046 15.7354 8.6004 16.1615 9.03409 16.6309C9.49774 17.1313 10.0366 17.5985 10.0558 17.6603Z" fill="white"/>
<path d="M11.7896 17.2154C11.6607 17.3528 11.6151 17.5287 11.6893 17.6603C11.7618 17.7882 11.7842 17.4731 11.8648 17.3805C11.9346 17.2995 11.9776 17.3125 12.0921 17.231C12.2873 17.0937 11.9526 17.0404 11.7896 17.2154Z" fill="white"/>
<path d="M11.052 14.2787C10.9634 14.2644 10.9661 14.3991 10.9786 14.4945C11.0377 14.9213 11.2293 15.2503 11.4852 15.56C11.641 15.7489 12.0679 16.0854 12.1171 16.0313C12.1351 16.012 11.7107 15.684 11.4404 15.2625C11.2489 14.9635 11.1468 14.7107 11.1227 14.464C11.1201 14.4327 11.1272 14.2908 11.052 14.2787Z" fill="white"/>
<path d="M9.39881 7.95105C9.20634 8.05531 8.8725 8.14712 8.8725 8.14712C8.8725 8.14712 8.85725 8.18022 8.90025 8.17668C9.18627 8.15381 9.29542 8.11803 9.44762 8.05089C9.59977 7.98514 9.71032 7.80251 9.71032 7.80251C9.71032 7.80251 9.7721 7.68882 9.65754 7.78238C9.6217 7.811 9.50441 7.89333 9.39881 7.95105Z" fill="white"/>
<path d="M11.7207 7.21761C11.7207 7.21761 11.6554 7.20324 11.6115 7.23058C11.5676 7.25833 11.5801 7.28027 11.5801 7.28027C11.5801 7.28027 11.6482 7.33217 11.6965 7.34072C11.7449 7.34788 11.8487 7.39308 11.8452 7.35817C11.8406 7.32239 11.7825 7.25839 11.7618 7.24094C11.7431 7.22249 11.7207 7.21761 11.7207 7.21761Z" fill="white"/>
<path d="M10.6278 9.22255C10.6389 9.24536 10.834 9.19212 10.9093 9.15C10.9679 9.11689 10.9911 9.00588 10.9911 9.00588C10.9911 9.00588 11.0072 8.89848 10.9822 8.94008C10.8707 9.12231 10.617 9.19922 10.6278 9.22255Z" fill="white"/>
<path d="M10.6215 8.72172C10.7003 8.57045 10.4053 8.87881 10.255 8.95846C10.1632 9.00681 10.0138 9.07122 10.0138 9.07122C10.0138 9.07122 9.97438 9.12044 10.0294 9.11596C10.0845 9.11236 10.2246 9.15983 10.3383 9.07209C10.3651 9.05062 10.4832 8.87876 10.4832 8.87876C10.4832 8.87876 10.5839 8.79329 10.6215 8.72172Z" fill="white"/>
<path d="M10.5759 9.36527C10.5821 9.38988 10.9128 9.3818 10.9957 9.35678C11.061 9.33886 11.0968 9.22342 11.0968 9.22342C11.0968 9.22342 11.1362 9.12231 11.1021 9.15628C10.9522 9.30936 10.5701 9.34066 10.5759 9.36527Z" fill="white"/>
<path d="M5.26411 12.3946C5.26411 12.3946 5.21401 12.3763 5.15181 12.4698C5.09003 12.5629 4.81168 12.9858 4.86091 13.048C4.91949 13.1214 5.16072 12.6703 5.2342 12.5862C5.30844 12.5007 5.27801 12.4148 5.27801 12.4148C5.27801 12.4148 5.27714 12.3955 5.26411 12.3946Z" fill="white"/>
<path d="M11.3277 20.0197C11.2972 20.1602 11.333 20.4476 11.3814 20.5039C11.4995 20.6462 11.427 20.2811 11.444 20.153C11.4583 20.034 11.4726 19.9928 11.5318 19.8657C11.6374 19.6366 11.3895 19.7207 11.3277 20.0197Z" fill="white"/>
<path d="M10.3118 7.79896C10.3118 7.79896 10.2201 7.80164 10.1485 7.84102C10.076 7.88041 10.0581 7.93638 10.0581 7.93638C10.0581 7.93638 10.0433 7.97665 10.0532 7.99858C10.0742 8.04646 10.1736 7.97397 10.2429 7.99765C10.2989 8.01778 10.3257 8.03436 10.3687 8.0858C10.4063 8.1306 10.4721 8.195 10.5133 8.15829C10.5557 8.12251 10.5401 8.03076 10.5401 8.03076C10.5401 8.03076 10.4913 7.88129 10.4274 7.83922C10.3629 7.79628 10.3118 7.79896 10.3118 7.79896Z" fill="white"/>
<path d="M8.78757 8.85019C8.78757 8.85019 8.73608 8.85822 8.74818 8.92088C8.76028 8.9822 8.79385 8.97278 8.79385 8.97278C8.79385 8.97278 8.90038 8.9271 8.8941 8.86316C8.88648 8.7987 8.78757 8.85019 8.78757 8.85019Z" fill="white"/>
<path d="M8.04329 8.51634C8.04329 8.51634 7.98738 8.51861 7.94799 8.58791C7.90953 8.65685 7.88667 8.72847 7.88667 8.72847C7.88667 8.72847 7.86834 8.81889 7.90051 8.84751C7.93321 8.87567 7.96899 8.78892 8.01595 8.75489C8.04411 8.73476 8.06162 8.7258 8.09071 8.7052C8.13057 8.67785 8.19544 8.71276 8.19096 8.63224C8.1852 8.55119 8.09926 8.51273 8.04329 8.51634Z" fill="white"/>
<path d="M10.4483 7.65036C10.4483 7.65036 10.3217 7.63204 10.3266 7.68079C10.331 7.72641 10.3951 7.69912 10.4362 7.71751C10.4765 7.73583 10.5034 7.74299 10.5355 7.77255C10.5593 7.79355 10.5565 7.83474 10.5857 7.83561C10.626 7.83655 10.6179 7.81996 10.6179 7.81996C10.6179 7.81996 10.5812 7.71076 10.5334 7.67992C10.4859 7.64856 10.4483 7.65036 10.4483 7.65036Z" fill="white"/>
<path d="M11.8612 8.16097C11.8433 8.22991 11.8325 8.25359 11.8325 8.25359C11.8325 8.25359 11.7968 8.39369 11.9382 8.3422C12.0796 8.29025 12.0062 8.31218 12.1082 8.26255C12.2085 8.21333 12.2067 8.24062 12.2801 8.24422C12.3051 8.2451 12.3212 8.24597 12.3589 8.23887C12.3911 8.23166 12.3776 8.19407 12.3061 8.17481C12.2291 8.15468 12.1351 8.15916 12.026 8.15823C11.9615 8.15742 11.88 8.09208 11.8612 8.16097Z" fill="white"/>
<path d="M11.9238 7.64321C11.9238 7.64321 11.8593 7.62843 11.8146 7.65618C11.7707 7.68347 11.7842 7.7054 11.7842 7.7054C11.7842 7.7054 11.8513 7.7587 11.9005 7.76585C11.9489 7.77435 12.0527 7.81909 12.0491 7.78331C12.0437 7.7484 11.9865 7.68353 11.9659 7.66607C11.9453 7.64856 11.9238 7.64321 11.9238 7.64321Z" fill="white"/>
<path d="M12.1727 8.61571C12.1727 8.61571 12.1037 8.60181 12.0563 8.62822C12.0098 8.65417 12.0223 8.67523 12.0223 8.67523C12.0223 8.67523 12.0957 8.72451 12.1476 8.73208C12.1996 8.73923 12.3105 8.7813 12.306 8.74773C12.3016 8.71462 12.2389 8.6533 12.2183 8.63678C12.1977 8.62014 12.1727 8.61571 12.1727 8.61571Z" fill="white"/>
<path d="M12.1941 8.9683C12.1941 8.9683 12.1207 8.95177 12.0706 8.9822C12.0205 9.01217 12.0356 9.03637 12.0356 9.03637C12.0356 9.03637 12.1118 9.09409 12.1673 9.10217C12.2218 9.11067 12.34 9.15902 12.3346 9.1205C12.3302 9.08204 12.2639 9.01222 12.2406 8.99343C12.2192 8.97365 12.1941 8.9683 12.1941 8.9683Z" fill="white"/>
<path d="M12.2272 9.31203C12.2272 9.31203 12.1476 9.29371 12.0938 9.32768C12.0392 9.36166 12.0562 9.38901 12.0562 9.38901C12.0562 9.38901 12.1385 9.45342 12.1977 9.46331C12.2576 9.47273 12.3856 9.52771 12.3803 9.48431C12.3749 9.44137 12.3033 9.36166 12.2782 9.34066C12.255 9.31826 12.2272 9.31203 12.2272 9.31203Z" fill="white"/>
<path d="M12.2201 9.73717C12.2201 9.73717 12.1405 9.72018 12.0867 9.75375C12.0321 9.78686 12.0474 9.81414 12.0474 9.81414C12.0474 9.81414 12.1314 9.87855 12.1906 9.88844C12.2497 9.89787 12.3776 9.95291 12.3723 9.90991C12.366 9.86651 12.2953 9.78686 12.2711 9.7658C12.2461 9.74392 12.2201 9.73717 12.2201 9.73717Z" fill="white"/>
<path d="M12.1619 10.566C12.1619 10.566 12.0813 10.5486 12.0276 10.5826C11.9739 10.6162 11.9901 10.6431 11.9901 10.6431C11.9901 10.6431 12.0724 10.7079 12.1315 10.7174C12.1915 10.7263 12.3195 10.7822 12.3141 10.7384C12.3087 10.6954 12.2372 10.6162 12.2121 10.5942C12.1879 10.5723 12.1619 10.566 12.1619 10.566Z" fill="white"/>
<path d="M12.2156 10.1516C12.2156 10.1516 12.1243 10.1306 12.0598 10.1699C11.998 10.2084 12.0169 10.2397 12.0169 10.2397C12.0169 10.2397 12.1126 10.3149 12.1815 10.3257C12.2496 10.3368 12.3982 10.4 12.3928 10.3508C12.3856 10.3002 12.3032 10.2084 12.2747 10.1838C12.246 10.1588 12.2156 10.1516 12.2156 10.1516Z" fill="white"/>
<path d="M12.1225 10.9411C12.1225 10.9411 12.0562 10.9254 12.0115 10.9536C11.9667 10.9813 11.9811 11.0033 11.9811 11.0033C11.9811 11.0033 12.0491 11.0574 12.0974 11.0646C12.1467 11.0727 12.2514 11.1178 12.2478 11.082C12.2424 11.0462 12.1842 10.9813 12.1637 10.9639C12.144 10.9455 12.1225 10.9411 12.1225 10.9411Z" fill="white"/>
<path d="M12.0599 11.2999C12.0599 11.2999 12.0062 11.2883 11.9686 11.3112C11.9329 11.334 11.9435 11.3523 11.9435 11.3523C11.9435 11.3523 11.9999 11.3962 12.0402 11.4029C12.0804 11.4091 12.1691 11.4477 12.1655 11.4172C12.1619 11.3881 12.1118 11.334 12.0956 11.3192C12.0787 11.3044 12.0599 11.2999 12.0599 11.2999Z" fill="white"/>
<path d="M11.9829 11.6276C11.9829 11.6276 11.9346 11.6164 11.9005 11.6374C11.8683 11.6575 11.8772 11.675 11.8772 11.675C11.8772 11.675 11.9283 11.7144 11.965 11.7198C12.0017 11.7265 12.0804 11.76 12.0769 11.7336C12.0742 11.7072 12.0303 11.6575 12.0151 11.6445C11.9998 11.6312 11.9829 11.6276 11.9829 11.6276Z" fill="white"/>
<path d="M11.9059 11.8961C11.9059 11.8961 11.8558 11.8848 11.8236 11.905C11.7895 11.926 11.7994 11.9426 11.7994 11.9426C11.7994 11.9426 11.8505 11.9828 11.8872 11.9882C11.9239 11.994 12.0026 12.0285 11.9991 12.0013C11.9964 11.9748 11.9525 11.9261 11.9364 11.9131C11.922 11.8997 11.9059 11.8961 11.9059 11.8961Z" fill="white"/>
<path d="M11.812 12.2076C11.812 12.2076 11.7726 12.1981 11.7448 12.2147C11.7179 12.2322 11.7269 12.2452 11.7269 12.2452C11.7269 12.2452 11.768 12.2774 11.7976 12.2828C11.8271 12.2872 11.8916 12.315 11.8881 12.2926C11.8853 12.2716 11.8495 12.2322 11.8379 12.221C11.8253 12.2102 11.812 12.2076 11.812 12.2076Z" fill="white"/>
<path d="M11.7001 12.4989C11.7001 12.4989 11.6661 12.4908 11.6428 12.5051C11.6196 12.5199 11.6268 12.5319 11.6268 12.5319C11.6268 12.5319 11.6626 12.5592 11.6876 12.5628C11.7127 12.5678 11.7682 12.5915 11.7655 12.5723C11.7637 12.5539 11.7324 12.5199 11.7225 12.5109C11.7108 12.5016 11.7001 12.4989 11.7001 12.4989Z" fill="white"/>
<path d="M11.5846 12.7759C11.5846 12.7759 11.5496 12.7683 11.5264 12.7831C11.504 12.797 11.512 12.8086 11.512 12.8086C11.512 12.8086 11.5461 12.8363 11.572 12.8408C11.598 12.8444 11.6525 12.8681 11.6499 12.8502C11.6481 12.8305 11.6168 12.797 11.6069 12.7876C11.5962 12.7786 11.5846 12.7759 11.5846 12.7759Z" fill="white"/>
<path d="M4.09199 14.1852C4.09199 14.1852 4.03427 14.2971 4.0629 14.3584C4.09112 14.4202 4.16896 14.2604 4.16896 14.2604C4.16896 14.2604 4.24949 14.101 4.21685 14.072C4.18374 14.0425 4.16454 14.1248 4.09199 14.1852Z" fill="white"/>
<path d="M12.2388 28.554V28.3366C12.2388 27.8425 12.4886 27.7458 13.2181 27.7423C13.8894 27.7458 14.1265 27.83 14.1265 28.256V29.9003H14.3744V30.2708H12.7347C12.3892 30.2708 12.1637 30.0336 12.1637 29.7418V29.4088C12.1637 29.1215 12.3104 28.8709 12.8242 28.8682H13.4651V28.3678C13.4651 28.1065 13.4472 28.0751 13.185 28.0751H13.1823C12.8682 28.0751 12.8476 28.1163 12.8476 28.3678V28.554H12.2388M12.9997 29.1439C12.8708 29.1439 12.7947 29.2477 12.7947 29.3766V29.6943C12.7947 29.8224 12.8494 29.9244 12.9997 29.9262H13.2306C13.3578 29.9262 13.4616 29.8868 13.4616 29.6943L13.4634 29.1439H13.2449C13.2396 29.1439 12.9997 29.1439 12.9997 29.1439Z" fill="black"/>
<path d="M10.6793 28.3616V27.787H9.76453V28.1289H10.0084V29.8993H9.76453V30.2708H10.9102V29.8993H10.6793V28.9506C10.6793 28.8621 11.2185 28.1809 11.2185 28.2596V29.2021H11.8523V28.1415C11.8523 27.8989 11.6938 27.7423 11.4047 27.7423C11.061 27.7423 10.8287 28.1746 10.6793 28.3616Z" fill="black"/>
<path d="M17.9709 29.8976V27.787H17.0374V28.1289H17.2988V29.8976H17.0374V30.2708H18.2162V29.8976H17.9709Z" fill="black"/>
<path d="M8.32574 28.3616V27.787H7.41101V28.1289H7.65491V29.8993H7.41101V30.2708H8.5558V29.8993H8.32574V28.9506C8.32574 28.8621 8.86457 28.1809 8.86457 28.2596V29.2021H9.49782V28.1415C9.49782 27.8989 9.34026 27.7423 9.05075 27.7423C8.70788 27.7423 8.47521 28.1746 8.32574 28.3616Z" fill="black"/>
<path fill-rule="evenodd" clip-rule="evenodd" d="M7.06089 29.4572H6.41915V29.6434C6.41915 29.8958 6.37708 29.9065 6.06424 29.9101H6.05976C5.70124 29.9119 5.72143 29.8761 5.72545 29.6434V29.2021H7.06084V28.2435C7.06084 27.8961 6.79861 27.7503 6.10671 27.7476H6.0074C5.26046 27.7512 5.06177 27.9213 5.06177 28.3509V29.7543C5.06177 30.2269 5.34098 30.3066 6.02124 30.3254H6.09548C6.838 30.3083 7.06084 30.2573 7.06084 29.8161V29.4572M5.73266 28.2793C5.73266 28.1486 5.77205 28.0841 5.92152 28.0823H6.203C6.31937 28.0823 6.38424 28.1343 6.38424 28.2273V28.9461H5.7326V28.2793H5.73266Z" fill="black"/>
<path d="M17.6326 27.2768V26.8275" stroke="black" stroke-width="0.74" stroke-miterlimit="10"/>
<path d="M15.5381 28.3616V27.787H14.6224V28.1289H14.8659V29.8993H14.6224V30.2708H15.7681V29.8993H15.5381V28.9506C15.5381 28.8621 16.0761 28.1809 16.0761 28.2596V29.2021H16.7106V28.1415C16.7106 27.8989 16.5512 27.7423 16.2612 27.7423C15.9194 27.7423 15.6866 28.1746 15.5381 28.3616Z" fill="black"/>
<path d="M4.2616 29.0634V28.7322H3.90494V29.9003H4.52295V30.2708H2.71094V29.9003H3.19292V27.2768H2.81433V26.8257H16.928V27.2768H3.90494V28.3303H4.2616V28.0188H4.67201V29.0634H4.2616Z" fill="black"/>
<path d="M17.9619 26.8096H17.2888V27.2536H17.9619V26.8096Z" fill="black"/>
</g>
<defs>
<clipPath id="clip0_601_1005">
<rect width="20.0145" height="32" fill="white" transform="translate(0.561035 0.17749)"/>
</clipPath>
</defs>
</svg>
