<svg width="33" height="32" viewBox="0 0 33 32" fill="none" xmlns="http://www.w3.org/2000/svg">
<g clip-path="url(#clip0_601_1109)">
<path d="M16.8134 24.6394C21.1024 21.2648 23.1179 16.8972 24.0152 13.4633C24.9331 9.94686 25.0727 6.56817 25.0696 6.44742L25.0637 6.2571L24.9219 6.14084C21.4274 2.90849 16.9153 1.18076 16.7025 1.11074L16.5894 1.07303L16.4768 1.11074C16.264 1.18076 11.861 2.90849 8.25739 6.14084L8.1151 6.2571L8.10971 6.44742C8.10612 6.56817 8.20576 9.95673 9.16052 13.4633C10.0439 16.7065 11.9189 21.3932 16.3659 24.6394L16.5894 24.8028L16.8134 24.6394Z" fill="#1A377A"/>
<path fill-rule="evenodd" clip-rule="evenodd" d="M16.5948 4.28595C15.8443 4.53014 11.5059 5.98539 8.86292 7.9555C8.87099 9.35824 9.33828 18.4538 16.5948 24.1038C23.683 18.4538 24.3074 9.35779 24.3154 7.9555C21.6725 5.98539 17.3453 4.53014 16.5948 4.28595Z" fill="#CB9F18"/>
<path d="M16.4153 1.67902L16.4265 2.10545C16.2689 1.99547 16.0553 1.93712 15.8093 1.93712C15.6939 1.93712 15.544 1.96585 15.4165 2.01567L15.4389 2.30744C15.5714 2.23248 15.6948 2.21767 15.8205 2.21767C16.1814 2.21767 16.4377 2.48789 16.4377 2.84609C16.4377 3.20205 16.1827 3.47452 15.8093 3.47452C15.6715 3.47452 15.5103 3.44983 15.4277 3.40719L15.4165 3.69895C15.5444 3.72903 15.6764 3.75506 15.8093 3.75506C16.049 3.75506 16.2653 3.70165 16.4265 3.59796L16.4153 3.9795H16.5836H16.7631V3.60918C16.9198 3.7012 17.1209 3.75506 17.3467 3.75506C17.4795 3.75506 17.6115 3.72903 17.7394 3.69895L17.7282 3.40719C17.6456 3.44983 17.4845 3.47452 17.3467 3.47452C16.9737 3.47452 16.7519 3.2016 16.7519 2.84609C16.7519 2.48744 16.975 2.21767 17.3354 2.21767C17.4611 2.21767 17.5841 2.23203 17.717 2.30744L17.7394 2.01567C17.6119 1.9654 17.462 1.93712 17.3467 1.93712C17.1155 1.93712 16.9171 1.99682 16.7631 2.09423V1.67902H16.5836H16.4153Z" fill="#CB9F18"/>
<path d="M16.5835 4.2825V5.42713L19.2543 5.27003C17.9624 4.74035 16.9188 4.39113 16.5835 4.2825ZM16.5835 5.42713V7.63784L20.8254 7.24508L24.2817 8.58048C24.297 8.30577 24.3033 8.08941 24.3042 7.95206C23.9096 7.65804 23.4769 7.37929 23.0249 7.11042L20.8254 7.23386L16.5835 5.42713ZM16.5835 7.63784V7.64907V9.85978L20.8254 9.29868L24.0909 10.4433C24.1731 9.87773 24.2166 9.37858 24.248 8.97325L20.8254 9.28746L16.5835 7.63784ZM16.5835 9.85978V12.0817L20.8254 11.3635L23.7543 12.2725C23.8602 11.8007 23.9433 11.3541 24.0124 10.9371L20.8254 11.3411L16.5835 9.85978ZM16.5835 12.0817V14.2924L20.8254 13.4171L23.2717 14.0904C23.392 13.6986 23.4921 13.3166 23.586 12.9458L20.8254 13.4059L16.5835 12.0817ZM16.5835 14.2924V16.5144L20.8254 15.4707L22.6321 15.8971C22.7506 15.6013 22.8552 15.3114 22.9575 15.0218L20.8254 15.4595L16.5835 14.2924ZM16.5835 16.5144V18.7251L20.8254 17.5355L21.8017 17.7263C21.8883 17.5566 21.9678 17.3901 22.0486 17.2213L20.8254 17.5131L16.5835 16.5144ZM16.5835 18.7251V18.7363V20.947L20.6907 19.634C20.7069 19.6098 20.7199 19.5802 20.7356 19.5555L16.5835 18.7251ZM16.5835 20.947V23.1689L18.3453 22.5293C18.7116 22.159 19.055 21.7815 19.3777 21.3959L16.5835 20.947ZM16.5835 23.1689V24.1003C16.9251 23.8342 17.2478 23.5612 17.5598 23.2811L16.5835 23.1689Z" fill="#CB9F18"/>
<path d="M16.5835 4.2825C16.2487 4.39113 15.1925 4.74035 13.9015 5.27003L16.5835 5.42713V4.2825ZM16.5835 5.42713L12.3417 7.23386L10.1422 7.11042C9.68969 7.37974 9.25743 7.65759 8.86287 7.95206C8.86376 8.08986 8.85838 8.30442 8.87409 8.58048L12.3417 7.24508L16.5835 7.63784V5.42713ZM16.5835 7.63784L12.3417 9.28746L8.90776 8.97325C8.93917 9.37948 8.99349 9.87638 9.07609 10.4433L12.3417 9.29868L16.5835 9.85978V7.63784ZM16.5835 9.85978L12.3417 11.3411L9.14342 10.9371C9.21299 11.355 9.30681 11.7989 9.41274 12.2725L12.3417 11.3635L16.5835 12.0817V9.85978ZM16.5835 12.0817L12.3417 13.4059L9.56985 12.9346C9.66411 13.3062 9.77454 13.6972 9.89528 14.0904L12.3417 13.4171L16.5835 14.2924V12.0817ZM16.5835 14.2924L12.3417 15.4595L10.1983 15.0218C10.3011 15.3127 10.416 15.6 10.5349 15.8971L12.3417 15.4707L16.5835 16.5144V14.2924ZM16.5835 16.5144L12.3417 17.5131L11.1072 17.2213C11.1885 17.3915 11.2666 17.5553 11.3541 17.7263L12.3417 17.5355L16.5835 18.7251V16.5144ZM16.5835 18.7363L12.4202 19.5555C12.435 19.5779 12.4503 19.6004 12.4651 19.6228L16.5835 20.947V18.7363ZM16.5835 20.947L13.7781 21.3959C14.099 21.7792 14.4464 22.1612 14.8105 22.5293L16.5835 23.1689V20.947ZM16.5835 23.1689L15.596 23.2924C15.9075 23.572 16.2424 23.8346 16.5835 24.1003V23.1689Z" fill="#E3B80F"/>
<path d="M13.9127 5.27347C12.7411 5.75376 11.368 6.38488 10.1421 7.11386L12.3416 7.2373L16.5835 5.43057L13.9127 5.27347ZM12.3416 7.24852L8.88525 8.58392C8.89199 8.70243 8.89648 8.83574 8.9077 8.97669L12.3416 9.2909L16.5835 7.64129L12.3416 7.24852ZM12.3416 9.30212L9.07603 10.4468C9.09892 10.6043 9.11553 10.7726 9.14336 10.9405L12.3416 11.3445L16.5835 9.86322L12.3416 9.30212ZM12.3416 11.367L9.41268 12.2759C9.46117 12.4927 9.51233 12.7113 9.56979 12.938L12.3416 13.4093L16.5835 12.0852L12.3416 11.367ZM12.3416 13.4206L9.89522 14.0939C9.98859 14.3991 10.0864 14.7097 10.1982 15.0253L12.3416 15.4629L16.5835 14.2959L12.3416 13.4206ZM12.3416 15.4742L10.5349 15.9006C10.7086 16.3342 10.8962 16.7835 11.1072 17.2248L12.3416 17.5165L16.5835 16.5178L12.3416 15.4742ZM12.3416 17.539L11.3541 17.7298C11.6669 18.3411 12.0247 18.9516 12.4201 19.5589L16.5835 18.7285L12.3416 17.539ZM12.465 19.6263C12.8591 20.2264 13.2932 20.8203 13.778 21.3993L16.5835 20.9504L12.465 19.6263ZM14.8104 22.5327C15.0645 22.7899 15.3194 23.048 15.5959 23.2958L16.5835 23.1724L14.8104 22.5327Z" fill="#DA442D"/>
<path d="M19.2543 5.27347L16.5835 5.43057L20.8254 7.2373L23.0249 7.11386C21.7994 6.38488 20.4259 5.75421 19.2543 5.27347ZM20.8254 7.24852L16.5835 7.64129L20.8254 9.2909L24.2593 8.97669C24.2705 8.83395 24.2754 8.70377 24.2817 8.58392L20.8254 7.24852ZM20.8254 9.30212L16.5835 9.86322L20.8254 11.3445L24.0124 10.9405C24.0402 10.7713 24.068 10.6057 24.0909 10.4468L20.8254 9.30212ZM20.8254 11.367L16.5835 12.0852L20.8254 13.4093L23.586 12.9492C23.6438 12.7212 23.7054 12.4941 23.7543 12.2759L20.8254 11.367ZM20.8254 13.4206L16.5835 14.2959L20.8254 15.4629L22.9575 15.0253C23.0693 14.7088 23.1775 14.4009 23.2717 14.0939L20.8254 13.4206ZM20.8254 15.4742L16.5835 16.5178L20.8254 17.5165L22.0486 17.2248C22.2604 16.7822 22.4584 16.3356 22.6321 15.9006L20.8254 15.4742ZM20.8254 17.539L16.5835 18.7285L20.7356 19.5589C21.1311 18.9516 21.4893 18.3411 21.8017 17.7298L20.8254 17.539ZM20.6907 19.6375L16.5835 20.9504L19.3777 21.3993C19.8612 20.8216 20.2975 20.2358 20.6907 19.6375ZM18.3453 22.5327L16.5835 23.1724L17.5598 23.2846C17.8341 23.0386 18.0931 22.7881 18.3453 22.5327Z" fill="#C83E29"/>
<path d="M14.8778 26.7858L14.8217 27.2347L15.9102 27.2235L15.9551 26.7858H14.8778ZM1.99508 26.797L1.57987 30.1187H2.66839L2.83672 28.7384H2.84794L3.52126 30.1075H4.722L3.84669 28.3793L5.02499 26.797H3.89158L2.9265 28.1212H2.91527L3.07238 26.797H1.99508ZM23.2942 27.4143C22.813 27.4152 22.5136 27.5619 22.4526 28.0539L22.273 29.4903C22.2061 30.029 22.5141 30.1192 22.9014 30.1187H24.293C24.727 30.1178 25.0179 29.9778 25.0785 29.4903L25.1009 29.2883H24.0124C23.9707 29.5123 23.7812 29.5796 23.6645 29.5801C23.38 29.5801 23.3781 29.3588 23.3952 29.221L23.4177 29.0302H25.1346L25.258 28.0427C25.3209 27.5381 25.0412 27.4138 24.6072 27.4143H23.2942ZM26.369 27.4143C25.9628 27.4147 25.6768 27.5597 25.6171 28.0427L25.4488 29.4566C25.3878 29.9482 25.6351 30.0855 26.0323 30.0851H26.3914C26.5733 30.0846 26.7784 30.0617 26.9301 29.928C27.0091 29.8588 27.0158 29.8319 27.1209 29.625H27.1321L27.0423 30.3432H25.4039L25.3366 31.0053H27.2668C27.589 31.0053 28.0604 30.9527 28.1308 30.3881L28.4899 27.4367H27.4014L27.3565 27.8182H27.3453C27.2762 27.5853 27.1307 27.4138 26.7618 27.4143H26.369ZM29.3765 27.4143C29.0491 27.4493 28.8339 27.6201 28.7817 28.0427L28.6022 29.4566C28.5411 29.9482 28.7997 30.0855 29.1969 30.0851H29.5448C29.7266 30.0851 29.9313 30.0505 30.0834 29.9167C30.162 29.8476 30.1804 29.8319 30.2854 29.625L30.2069 30.3319L28.5685 30.3432L28.4899 31.0053L30.4313 30.994C30.7536 30.9936 31.2249 30.9527 31.2954 30.3881L31.6545 27.4367H30.566L30.5099 27.807C30.4407 27.5741 30.2841 27.4138 29.9151 27.4143H29.5336C29.4828 27.4143 29.4232 27.4093 29.3765 27.4143ZM13.419 27.4255C13.1016 27.4255 12.9885 27.4991 12.8691 27.5938C12.7694 27.6845 12.7515 27.715 12.6895 27.8744H12.6783L12.7232 27.4591H11.6347L11.3092 30.1075H12.3978L12.611 28.3681C12.6235 28.2644 12.6617 27.9646 12.9701 27.9641C13.2874 27.9637 13.2533 28.2222 13.2394 28.3344L13.0262 30.1075L14.1147 30.0963L14.3616 28.0651C14.4267 27.5435 14.1497 27.425 13.7668 27.4255H13.419ZM16.8865 27.4255C16.4803 27.4259 16.1944 27.5709 16.1347 28.0539L15.9663 29.4679C15.9053 29.9594 16.1638 30.0967 16.5611 30.0963H16.909C17.0908 30.0963 17.2959 30.0729 17.4476 29.9392C17.5266 29.87 17.5333 29.8431 17.6384 29.6362H17.6496L17.5598 30.3544H15.9327L15.8541 31.0165H17.7955C18.1178 31.0165 18.5783 30.964 18.6484 30.3993L19.0075 27.4479H17.9189L17.874 27.8295H17.8628C17.7937 27.5965 17.6483 27.425 17.2793 27.4255H16.8865ZM19.9052 27.4255C19.5777 27.4613 19.3515 27.6317 19.2992 28.0539L19.2543 28.413C19.1735 29.0643 19.5663 29.0778 19.995 29.0863L20.9039 29.1088L20.8927 29.1873C20.8829 29.265 20.8389 29.5684 20.4887 29.5689C20.4138 29.5689 20.342 29.5558 20.2867 29.5127C20.2311 29.4737 20.1952 29.4126 20.197 29.322H19.1197L19.0972 29.4791C19.0232 30.0783 19.4285 30.1192 19.793 30.1187H21.1284C21.5858 30.1183 21.8785 29.9446 21.9364 29.4791L21.9813 29.1312C22.0562 28.5275 21.6199 28.5109 21.2518 28.5028L20.3316 28.4916L20.3541 28.2896C20.3949 27.9619 20.6853 27.9641 20.7132 27.9641C20.7554 27.9641 20.8214 27.9771 20.8815 28.0202C20.9416 28.0633 20.9933 28.1311 20.9825 28.2559H22.071L22.0935 28.0539C22.1523 27.5794 21.9144 27.425 21.4987 27.4255H20.0511C20.0003 27.4255 19.952 27.4204 19.9052 27.4255ZM6.06862 27.4367C5.76024 27.4371 5.32304 27.4704 5.24943 28.0651L5.06988 29.5015C5.00119 30.0532 5.32843 30.1416 5.72074 30.1412L7.06737 30.1299C7.51581 30.1295 7.81699 29.971 7.87535 29.5015L8.0549 28.0651C8.1164 27.5696 7.8749 27.4362 7.42647 27.4367H6.06862ZM9.24441 27.4367C8.76366 27.4376 8.46382 27.5741 8.40277 28.0651L8.22322 29.5015C8.15634 30.0402 8.46427 30.1304 8.85165 30.1299H10.2432C10.6772 30.1291 10.9681 29.9886 11.0287 29.5015L11.0511 29.3108H9.96262C9.92086 29.5352 9.73144 29.5908 9.61474 29.5913C9.33015 29.5913 9.32835 29.3705 9.34541 29.2322L9.36786 29.0526H11.0848L11.2082 28.0651C11.2711 27.5606 10.9914 27.4362 10.5574 27.4367H9.24441ZM15.8765 27.4479L14.788 27.4591L14.4626 30.0963H15.5511L15.8765 27.4479ZM27.0311 27.908C27.344 27.9076 27.313 28.1904 27.3004 28.2896L27.1882 29.1761C27.1797 29.2452 27.142 29.546 26.8291 29.5464C26.5723 29.5464 26.5418 29.3408 26.5598 29.1985L26.6832 28.2559C26.703 28.0965 26.7883 27.9085 27.0311 27.908ZM30.1059 27.908C30.1316 27.9025 30.1653 27.9081 30.1957 27.908C30.5085 27.908 30.4663 28.1904 30.4538 28.2896L30.3416 29.1649C30.333 29.234 30.2953 29.546 29.9825 29.5464C29.7257 29.5469 29.7064 29.3408 29.7243 29.1985L29.8366 28.2559C29.8538 28.1165 29.9259 27.9468 30.1059 27.908ZM17.5486 27.9192C17.8615 27.9192 17.8305 28.2016 17.8179 28.3008L17.7057 29.1873C17.6972 29.2564 17.6595 29.5572 17.3466 29.5576C17.0899 29.5581 17.0598 29.352 17.0773 29.2098L17.2007 28.2671C17.2205 28.1073 17.3058 27.9197 17.5486 27.9192ZM23.8553 27.9529C24.0371 27.9529 24.1686 28.0602 24.1359 28.3232L24.1134 28.5028H23.485L23.5074 28.2783C23.5321 28.0799 23.6775 27.9534 23.8553 27.9529ZM6.66338 27.9641C6.97625 27.9637 6.94168 28.2388 6.93271 28.312L6.82049 29.2434C6.80433 29.3772 6.77425 29.5913 6.46139 29.5913C6.14853 29.5917 6.17546 29.3772 6.19206 29.2434L6.30428 28.312C6.31325 28.2388 6.35097 27.9641 6.66338 27.9641ZM9.80551 27.9753C9.98729 27.9753 10.1188 28.0714 10.0861 28.3344L10.0636 28.514H9.43519L9.45763 28.3008C9.48232 28.1028 9.62775 27.9758 9.80551 27.9753ZM25.0112 30.3319L19.0523 30.3432C19.0523 30.3432 19.0191 30.7938 18.8055 31.0053L24.9326 30.994L25.0112 30.3319ZM15.5174 30.3432L1.55743 30.3656L1.46765 31.0277L15.4389 31.0053L15.5174 30.3432Z" fill="#181A21" fill-opacity="0.941176"/>
<path d="M16.5835 1.68246V3.98295H16.763V3.61263C16.9197 3.70465 17.1208 3.75851 17.3466 3.75851C17.4795 3.75851 17.6114 3.73248 17.7393 3.7024L17.7281 3.41063C17.6455 3.45328 17.4844 3.47797 17.3466 3.47797C16.9736 3.47797 16.7518 3.20505 16.7518 2.84954C16.7518 2.49089 16.9749 2.22111 17.3354 2.22111C17.461 2.22111 17.584 2.23548 17.7169 2.31089L17.7393 2.01912C17.6119 1.96885 17.4619 1.94057 17.3466 1.94057C17.1154 1.94057 16.917 2.00027 16.763 2.09767V1.68246H16.5835Z" fill="#CB9F18"/>
<path d="M16.4153 1.68246L16.4265 2.1089C16.2689 1.99892 16.0553 1.94057 15.8093 1.94057C15.6939 1.94057 15.544 1.9693 15.4165 2.01912L15.4389 2.31089C15.5714 2.23593 15.6948 2.22111 15.8205 2.22111C16.1814 2.22111 16.4377 2.49134 16.4377 2.84954C16.4377 3.2055 16.1827 3.47797 15.8093 3.47797C15.6715 3.47797 15.5103 3.45328 15.4277 3.41063L15.4165 3.7024C15.5444 3.73248 15.6764 3.75851 15.8093 3.75851C16.049 3.75851 16.2653 3.7051 16.4265 3.60141L16.4153 3.98295H16.5836V1.68246H16.4153Z" fill="#E3B80F"/>
</g>
<defs>
<clipPath id="clip0_601_1109">
<rect width="32" height="31.7519" fill="white" transform="translate(0.561035 0.174377)"/>
</clipPath>
</defs>
</svg>
