<svg width="43" height="18" viewBox="0 0 43 18" fill="none" xmlns="http://www.w3.org/2000/svg">
<g clip-path="url(#clip0_601_24498)">
<path fill-rule="evenodd" clip-rule="evenodd" d="M40.393 14.9788C40.0948 14.9788 39.7925 14.9788 39.4943 14.9788C39.515 14.9333 39.5357 14.892 39.5564 14.8507C39.7055 14.5573 39.8587 14.4623 40.1901 14.4623C40.3433 14.4623 40.4965 14.4623 40.6498 14.4623C40.5669 14.6317 40.48 14.8052 40.393 14.9788Z" fill="black"/>
<path fill-rule="evenodd" clip-rule="evenodd" d="M39.4238 16.9745C39.6971 16.4208 39.9746 15.8671 40.248 15.3135C39.9498 15.3135 39.6474 15.3135 39.3493 15.3135C39.1132 15.7927 38.873 16.2679 38.6369 16.7472C38.5541 16.9083 38.4464 16.9745 38.2559 16.9745C37.5269 16.9745 36.798 16.9745 36.0691 16.9745C36.3673 16.3836 36.6614 15.7927 36.9554 15.1978C37.0797 14.9499 37.1252 14.9333 37.4193 14.9333C37.5062 14.9333 37.5932 14.9333 37.6802 14.9333C37.9328 14.9333 38.0529 14.8631 38.1565 14.6606C38.1979 14.578 38.2352 14.4954 38.2766 14.4168C37.966 14.4168 37.6553 14.4168 37.3447 14.4168C37.4772 14.1483 37.6139 13.8797 37.7464 13.6111C37.5518 13.6111 37.353 13.6111 37.1583 13.6111C36.9016 13.6111 36.7815 13.6772 36.6821 13.8797C36.5951 14.0574 36.504 14.2392 36.417 14.4168C36.2513 14.4168 36.0898 14.4168 35.9241 14.4168C35.8413 14.5904 35.7543 14.7598 35.6674 14.9333C35.833 14.9333 35.9946 14.9333 36.1602 14.9333C36.0567 15.1358 35.3526 16.5447 35.2532 16.7472C35.1745 16.9083 35.0627 16.9745 34.8763 16.9745C34.2261 16.9745 33.58 16.9745 32.9339 16.9745C33.2777 16.3464 33.6214 15.7184 33.9652 15.0903C33.7291 15.0903 33.4889 15.0903 33.2528 15.0903C33.0871 15.0903 33.0167 15.1441 32.9091 15.2721C32.9091 15.1358 32.8594 15.0903 32.731 15.0903C32.5653 15.0903 32.3996 15.0903 32.2381 15.0903C31.4264 15.0903 30.9708 15.3424 30.6188 15.9828C30.4779 16.239 30.3371 16.4952 30.2004 16.7513C30.1093 16.9125 30.0017 16.9745 29.8194 16.9745C29.4053 16.9745 28.987 16.9745 28.5687 16.9786C28.1172 16.9786 27.9391 16.9125 27.8894 16.6728C27.8356 16.4208 27.9474 16.2101 28.5562 15.8093C28.6722 15.7349 28.784 15.6605 28.9 15.582C29.0574 15.4787 29.1236 15.4209 29.1029 15.3093C29.0822 15.206 29.0201 15.0903 28.5272 15.0903C27.7403 15.0945 26.9576 15.0945 26.1707 15.0945C25.9222 15.0945 25.8062 15.1564 25.6944 15.363C25.4417 15.8258 25.185 16.2886 24.9323 16.7513C24.8454 16.9125 24.7377 16.9786 24.5554 16.9786C23.2964 16.9786 22.0373 16.9786 20.7783 16.9786C20.8321 16.8216 20.886 16.6604 20.9398 16.5034C21.5693 16.5034 22.1947 16.5034 22.8243 16.5034C23.197 16.5034 23.3502 16.4084 23.4869 16.0944C23.5449 15.9539 23.607 15.8093 23.665 15.6688C23.7106 15.5655 23.7478 15.4126 23.6733 15.2969C23.5822 15.1647 23.3544 15.0945 23.0148 15.0945C22.4101 15.0945 21.8054 15.0945 21.2007 15.0945C20.6209 15.0945 20.36 15.2556 20.1571 15.7308C20.0287 16.0241 19.9044 16.3216 19.7802 16.615C19.6518 16.9166 19.4488 16.9786 19.1589 16.9786C18.7282 16.9786 18.2975 16.9786 17.8626 16.9786C17.8916 16.9373 17.9206 16.896 17.9454 16.8546C18.2022 16.4704 18.1525 16.0448 17.8129 15.6812C17.4733 15.3259 17.0302 15.2019 16.6326 15.0945C16.2971 15.0945 15.9616 15.0945 15.6261 15.0903C15.3942 15.5118 15.1664 15.9332 14.9345 16.3547C14.6446 16.8836 14.3298 16.9745 13.7749 16.9745C13.369 16.9745 12.9631 16.9745 12.5572 16.9745C12.901 16.3464 13.2447 15.7184 13.5885 15.0903C13.3524 15.0903 13.1122 15.0903 12.8761 15.0903C12.7063 15.0903 12.6359 15.1441 12.5324 15.2721C12.5324 15.1358 12.4827 15.0903 12.3501 15.0903C12.1886 15.0903 12.023 15.0903 11.8614 15.0903C11.0497 15.0903 10.5941 15.3424 10.2421 15.9828C10.1012 16.239 9.96043 16.4952 9.82376 16.7513C9.73265 16.9125 9.62911 16.9745 9.44273 16.9745C8.82563 16.9745 8.20439 16.9745 7.5873 16.9745C8.11328 16.0159 8.63512 15.0573 9.16111 14.0987C9.25222 13.9334 9.13211 13.7268 8.9416 13.7268C6.48149 13.7268 4.02138 13.7268 1.56126 13.7268C1.06013 13.7268 0.811633 13.8549 0.575562 14.2557C1.63995 14.2557 2.7002 14.2557 3.7646 14.2557C3.17235 15.3382 2.5801 16.4208 1.98785 17.4992C2.29433 17.4992 2.60081 17.4992 2.90728 17.4992C3.49953 16.4208 4.09178 15.3382 4.68403 14.2598C5.11062 14.2598 5.5372 14.2598 5.95965 14.2598C5.3674 15.3382 4.77515 16.4208 4.1829 17.4992C4.48938 17.4992 4.79586 17.4992 5.10233 17.4992C5.69458 16.4208 6.28683 15.3382 6.87908 14.2598C7.30567 14.2598 7.73225 14.2598 8.1547 14.2598C7.66599 15.1523 7.17728 16.0448 6.68857 16.9373C6.6223 17.0571 6.55604 17.2265 6.62644 17.3463C6.68857 17.4455 6.83767 17.4992 7.06131 17.4992C7.86478 17.4992 8.6724 17.4992 9.48001 17.4992C9.60011 17.4992 9.64981 17.462 9.72436 17.3752C9.72436 17.4703 9.80305 17.4992 9.89831 17.4992C11.2857 17.4992 12.6732 17.4992 14.0606 17.4992C14.8848 17.4992 15.3238 17.2596 15.68 16.6109C15.8622 16.2803 16.0444 15.9456 16.2267 15.6109C16.235 15.6151 16.2764 15.6233 16.2847 15.6233C16.939 15.7473 17.2704 15.9911 17.2994 16.3629C17.3118 16.5158 17.2621 16.6563 17.1627 16.7679C17.0384 16.9001 16.8521 16.9745 16.645 16.9786C16.2267 16.9786 16.0569 17.1397 15.8954 17.4992C17.0674 17.4992 18.2436 17.4992 19.4199 17.4992C19.5358 17.4992 19.5897 17.462 19.6601 17.3752C19.6642 17.4703 19.7429 17.4992 19.8382 17.4992C21.5735 17.4992 23.3088 17.4992 25.0483 17.4992C25.4003 17.4992 25.5536 17.4083 25.7275 17.086C25.9305 16.7183 26.1334 16.3464 26.3363 15.9746C26.4771 15.7225 26.6511 15.6233 26.9534 15.6233C27.2599 15.6233 27.5664 15.6233 27.8729 15.6233C27.7155 15.7308 27.5457 15.8671 27.4131 15.9993C27.2392 16.1811 27.0694 16.4249 27.0404 16.7431C27.0156 16.9662 27.0735 17.1563 27.1978 17.2967C27.3179 17.429 27.5001 17.4992 27.7155 17.4992C28.432 17.4992 29.1443 17.4992 29.8608 17.4992C29.9768 17.4992 30.0306 17.462 30.101 17.3752C30.101 17.4703 30.1839 17.4992 30.2791 17.4992C31.7784 17.4992 33.2818 17.4992 34.7852 17.4992C34.9053 17.4992 34.955 17.462 35.0296 17.3752C35.0296 17.4703 35.1082 17.4992 35.2035 17.4992C37.4234 17.4992 39.6474 17.4992 41.8715 17.4992C42.2732 17.4992 42.4762 17.3711 42.5507 17.0654C42.559 17.0323 42.5673 17.0034 42.5756 16.9703C41.5236 16.9703 40.4716 16.9703 39.4238 16.9745ZM21.1593 15.8589C21.2504 15.5986 21.4617 15.5738 21.6522 15.5738C21.9959 15.5738 22.3355 15.5738 22.6793 15.5738C22.6544 15.644 22.6337 15.7142 22.6089 15.7845C22.5261 16.0283 22.3355 16.0489 22.1657 16.0489C21.8096 16.0489 21.4492 16.0489 21.0931 16.0489C21.1179 15.9869 21.1386 15.9208 21.1593 15.8589ZM11.82 16.6191C11.6751 16.8794 11.5094 16.9745 11.2029 16.9745C11.0331 16.9745 10.8633 16.9745 10.6935 16.9745C10.8757 16.6398 11.0621 16.3092 11.2443 15.9746C11.3851 15.7184 11.555 15.6192 11.8573 15.6192C12.0271 15.6192 12.1969 15.6192 12.3667 15.6192C12.1845 15.9539 12.0022 16.2886 11.82 16.6191ZM32.1926 16.6191C32.0517 16.8794 31.8861 16.9745 31.5796 16.9745C31.4098 16.9745 31.24 16.9745 31.0702 16.9745C31.2524 16.6398 31.4388 16.3092 31.621 15.9746C31.7577 15.7184 31.9316 15.6192 32.234 15.6192C32.4038 15.6192 32.5736 15.6192 32.7434 15.6192C32.5612 15.9539 32.3789 16.2886 32.1926 16.6191Z" fill="black"/>
<path fill-rule="evenodd" clip-rule="evenodd" d="M20.7451 11.7146C20.7451 11.5617 20.7451 11.4089 20.7451 11.256C21.1427 11.256 21.5362 11.256 21.9296 11.256C22.3231 11.256 22.7165 11.256 23.11 11.256C23.11 11.4089 23.11 11.5617 23.11 11.7146C22.7165 11.7146 22.3231 11.7146 21.9296 11.7146C21.5362 11.7146 21.1427 11.7146 20.7451 11.7146Z" fill="black"/>
<path fill-rule="evenodd" clip-rule="evenodd" d="M21.9297 12.6691C22.1782 12.6691 22.4267 12.6691 22.6752 12.6691C22.6752 12.4294 22.6752 12.1939 22.6752 11.9543C22.4267 11.9543 22.1782 11.9543 21.9297 11.9543C21.6812 11.9543 21.4327 11.9543 21.1842 11.9543C21.1842 12.1939 21.1842 12.4294 21.1842 12.6691C21.4327 12.6691 21.6812 12.6691 21.9297 12.6691Z" fill="black"/>
<path fill-rule="evenodd" clip-rule="evenodd" d="M21.1842 11.0163C21.18 10.6238 21.0806 10.2354 20.7617 9.97512C21.151 9.97512 21.5403 9.97512 21.9297 9.97512C22.319 9.97512 22.7083 9.97512 23.0976 9.97512C22.7787 10.2354 22.6751 10.6238 22.6751 11.0163C22.4266 11.0163 22.1781 11.0163 21.9297 11.0163C21.6812 11.0163 21.4327 11.0163 21.1842 11.0163Z" fill="black"/>
<path fill-rule="evenodd" clip-rule="evenodd" d="M19.2086 9.21486C19.2086 9.1033 19.2086 8.98761 19.2086 8.87605C20.1156 8.87605 21.0226 8.87605 21.9297 8.87605C22.8367 8.87605 23.7437 8.87605 24.6465 8.87605C24.6465 8.98761 24.6465 9.1033 24.6465 9.21486C23.7437 9.21486 22.8367 9.21486 21.9297 9.21486C21.0226 9.21486 20.1156 9.21486 19.2086 9.21486Z" fill="black"/>
<path fill-rule="evenodd" clip-rule="evenodd" d="M19.453 10.442C19.7719 10.3718 20.1115 10.1941 20.3393 9.97512C20.0245 9.97512 19.7098 9.97512 19.395 9.97512C19.4157 10.128 19.4323 10.285 19.453 10.442Z" fill="black"/>
<path fill-rule="evenodd" clip-rule="evenodd" d="M24.4063 10.442C24.0874 10.3718 23.7437 10.1941 23.5159 9.97512C23.8348 9.97512 24.1495 9.97512 24.4643 9.97512C24.4436 10.128 24.4229 10.285 24.4063 10.442Z" fill="black"/>
<path fill-rule="evenodd" clip-rule="evenodd" d="M19.1175 8.12819C18.8193 6.36802 18.2437 4.53349 17.61 3.32699C18.2933 3.69472 19.0223 4.28144 19.805 5.07889C19.4778 4.99212 19.1548 4.92601 18.8318 4.87643C19.2832 5.94244 19.6559 7.02912 19.9955 8.12819C19.7015 8.12819 19.4116 8.12819 19.1175 8.12819Z" fill="black"/>
<path fill-rule="evenodd" clip-rule="evenodd" d="M24.7418 8.12819C25.0358 6.36802 25.6115 4.53349 26.2452 3.32699C25.566 3.69472 24.837 4.28144 24.0543 5.07889C24.3773 4.99212 24.7045 4.92601 25.0276 4.87643C24.5761 5.94244 24.2034 7.02912 23.8638 8.12819C24.1537 8.12819 24.4477 8.12819 24.7418 8.12819Z" fill="black"/>
<path fill-rule="evenodd" clip-rule="evenodd" d="M18.9229 8.69838C18.9229 8.58269 18.9229 8.467 18.9229 8.35544C19.9251 8.35544 20.9274 8.35544 21.9297 8.35544C22.9319 8.35544 23.9342 8.35544 24.9365 8.35544C24.9365 8.467 24.9365 8.58269 24.9365 8.69838C23.9342 8.69838 22.9319 8.69838 21.9297 8.69838C20.9274 8.69838 19.9251 8.69838 18.9229 8.69838Z" fill="black"/>
<path fill-rule="evenodd" clip-rule="evenodd" d="M20.915 3.14105C21.3789 2.34361 21.7765 1.43874 21.9297 0.500809C22.0788 1.43874 22.4764 2.34361 22.9444 3.14105C22.7787 3.06668 22.6006 2.98818 22.406 2.90554C22.2403 2.82703 22.1699 2.87248 22.174 3.04602C22.232 4.74008 22.4805 6.66551 23.3668 8.12819C23.0189 8.12819 22.671 8.12819 22.3231 8.12819C22.1575 7.73979 22.0291 7.35553 21.9297 6.9754C21.8303 7.35553 21.6978 7.73979 21.5362 8.12819C21.1883 8.12819 20.8404 8.12819 20.4926 8.12819C21.3789 6.66551 21.6274 4.74008 21.6853 3.04602C21.6895 2.87248 21.6191 2.82703 21.4493 2.90554C21.2546 2.98818 21.0807 3.06668 20.915 3.14105Z" fill="black"/>
<path fill-rule="evenodd" clip-rule="evenodd" d="M18.9229 9.73548C18.9229 9.61978 18.9229 9.50822 18.9229 9.39253C19.9251 9.39253 20.9274 9.39253 21.9297 9.39253C22.9319 9.39253 23.9342 9.39253 24.9365 9.39253C24.9365 9.50822 24.9365 9.61978 24.9365 9.73548C23.9342 9.73548 22.9319 9.73548 21.9297 9.73548C20.9274 9.73548 19.9251 9.73548 18.9229 9.73548Z" fill="black"/>
</g>
<defs>
<clipPath id="clip0_601_24498">
<rect width="42" height="17" fill="white" transform="translate(0.575562 0.5)"/>
</clipPath>
</defs>
</svg>
