<svg width="32" height="33" viewBox="0 0 32 33" fill="none" xmlns="http://www.w3.org/2000/svg">
<path fill-rule="evenodd" clip-rule="evenodd" d="M29.5385 16.1209C29.5385 17.8988 29.1883 19.6593 28.5079 21.3019C27.8275 22.9444 26.8303 24.4369 25.5731 25.6941C24.316 26.9512 22.8235 27.9485 21.181 28.6288C19.5384 29.3092 17.7779 29.6594 16 29.6594C14.2221 29.6594 12.4616 29.3092 10.8191 28.6288C9.1765 27.9485 7.68403 26.9512 6.42687 25.6941C5.16971 24.4369 4.17247 22.9444 3.4921 21.3019C2.81173 19.6593 2.46155 17.8988 2.46155 16.1209C2.46155 14.343 2.81173 12.5826 3.4921 10.94C4.17247 9.29743 5.16971 7.80496 6.42687 6.5478C7.68403 5.29063 9.1765 4.2934 10.8191 3.61303C12.4616 2.93266 14.2221 2.58247 16 2.58247C17.7779 2.58247 19.5384 2.93266 21.181 3.61303C22.8235 4.2934 24.316 5.29063 25.5731 6.5478C26.8303 7.80496 27.8275 9.29743 28.5079 10.94C29.1883 12.5826 29.5385 14.343 29.5385 16.1209Z" fill="#1E1D51"/>
<path fill-rule="evenodd" clip-rule="evenodd" d="M15.9473 6.61859C14.791 6.64034 13.6818 6.84612 12.6505 7.20608V14.6383H15.9473V6.61859ZM9.9506 8.83355C8.23138 10.2927 7.01901 12.3052 6.60677 14.5852H9.9506V8.83355ZM12.5339 17.2752V25.0452C13.5922 25.4045 14.7305 25.6101 15.9172 25.6318V17.2752H12.5339ZM6.59595 17.2964C6.93867 19.7245 8.17674 21.8722 9.97177 23.4074V17.2964H6.59595Z" fill="url(#paint0_linear_601_54)"/>
<path fill-rule="evenodd" clip-rule="evenodd" d="M16.1871 6.71431C21.2956 6.81419 25.4068 10.9889 25.4068 16.1212C25.4068 21.2535 21.2956 25.4259 16.1871 25.5257V6.71431Z" fill="url(#paint1_linear_601_54)"/>
<path fill-rule="evenodd" clip-rule="evenodd" d="M12.4049 7.32411V14.849H15.8958V17.0704H12.4049V24.9376C11.5978 24.6045 10.8462 24.1655 10.168 23.6377V17.0704H6.5312C6.50078 16.7616 6.48511 16.4485 6.48511 16.1318C6.48511 15.6968 6.51465 15.2687 6.57153 14.849C6.57587 14.817 6.58031 14.7851 6.58497 14.7532C6.58033 14.7851 6.57586 14.8171 6.57153 14.849H10.168V8.62451C10.8462 8.09648 11.5978 7.65737 12.4049 7.32411Z" fill="url(#paint2_linear_601_54)"/>
<path fill-rule="evenodd" clip-rule="evenodd" d="M9.99903 8.87517C9.97114 8.89832 9.94339 8.92179 9.91577 8.94525C9.9435 8.92172 9.97102 8.89839 9.99903 8.87517Z" fill="#FFF38D"/>
<path fill-rule="evenodd" clip-rule="evenodd" d="M6.64624 17.1419C6.64928 17.1702 6.65237 17.1983 6.65565 17.2265C6.65235 17.1984 6.64929 17.1701 6.64624 17.1419Z" fill="#FFF38D"/>
<path fill-rule="evenodd" clip-rule="evenodd" d="M9.91577 23.2957C9.94339 23.3192 9.97114 23.3426 9.99903 23.3658C9.97102 23.3426 9.9435 23.3192 9.91577 23.2957Z" fill="#FFF38D"/>
<path d="M21.8047 9.88225H18.5686V10.3338H21.8047V9.88225Z" fill="#9D0D16"/>
<path fill-rule="evenodd" clip-rule="evenodd" d="M16.0395 1.89658C11.1145 1.88874 6.31922 4.44046 3.68157 9.009C-0.244223 15.8087 2.08839 24.5136 8.88806 28.4394C15.6877 32.3652 24.3927 30.0326 28.3184 23.2329C32.2442 16.4332 29.9116 7.7283 23.112 3.80251C20.8808 2.51435 18.4448 1.90041 16.0395 1.89658ZM16 2.58237C23.4732 2.58237 29.5386 8.64771 29.5386 16.1209C29.5386 23.5942 23.4732 29.6595 16 29.6595C8.52678 29.6595 2.46144 23.5942 2.46144 16.1209C2.46144 8.64772 8.52678 2.58237 16 2.58237ZM15.1849 3.0565V5.86271H16.04V4.91727L16.7305 5.86271L17.8556 6.02734L16.8805 4.76723C17.0945 4.72275 17.4958 4.49558 17.4958 4.01699C17.4958 3.3005 16.8506 3.07156 16.4454 3.07156L15.1849 3.0565ZM16.2653 3.67174C16.4979 3.67174 16.6628 3.82938 16.6703 4.00194C16.6778 4.1745 16.5584 4.36177 16.2954 4.36177H16.0249L16.0104 3.68679L16.2653 3.67174ZM20.2963 3.8312C20.2812 3.8311 20.2658 3.83136 20.2507 3.83167C19.513 3.84669 18.8892 4.29399 18.7399 5.02452C18.5912 5.75209 19.252 6.61306 20.0597 6.79639C20.9361 6.9953 21.754 6.57917 21.9384 5.63458C22.0963 4.82572 21.5018 4.03151 20.619 3.86318C20.5104 3.84247 20.4025 3.83185 20.2963 3.8312ZM9.94827 4.57203L9.18298 4.97701L9.54281 8.14305L10.3533 7.54286L10.2484 7.06309L11.1336 6.53769L11.5386 6.83778L12.469 6.4629L9.94827 4.57203ZM20.3161 4.60683C20.3681 4.60698 20.4209 4.61173 20.4741 4.62188C20.9001 4.7031 21.1704 5.07135 21.096 5.46196C21.0215 5.85256 20.6301 6.11844 20.2041 6.03722C19.7782 5.956 19.568 5.54353 19.6425 5.15293C19.7077 4.81115 19.952 4.60582 20.3161 4.60683ZM9.97837 5.5772L10.6232 6.0725L10.1581 6.34249L9.97837 5.5772ZM24.2479 5.98266L21.8471 7.64822L22.5522 8.20326L23.7079 7.30298L23.1223 8.75829L23.4224 9.04333L24.8932 8.44314L24.008 9.64352L24.548 10.4088L26.2437 7.97795L25.7032 7.33308L24.3227 7.88811L24.8782 6.49253L24.2479 5.98266ZM16 6.33731C10.6015 6.33731 6.21591 10.7229 6.21591 16.1214C6.21591 21.5199 10.6015 25.905 16 25.905C21.3985 25.905 25.7841 21.5199 25.7841 16.1214C25.7841 10.7229 21.3985 6.33731 16 6.33731ZM7.03717 6.65763L5.8669 8.00806L7.90735 9.82367L8.4779 9.16375L7.69757 8.47325L8.26765 7.85801L7.77235 7.40787L7.20227 8.03816L6.91723 7.76817L7.53247 7.09272L7.03717 6.65763ZM15.8109 6.71455V14.4794H12.7672V7.28322C13.7193 6.93469 14.7433 6.73561 15.8109 6.71455ZM16.1872 6.71455C19.7699 6.7846 22.862 8.859 24.3895 11.8622C24.3697 11.8359 24.3497 11.81 24.3293 11.7846C23.955 11.3197 23.4835 11.0114 23.0819 10.7531C23.0499 10.7327 23.0125 10.7223 22.9746 10.7235C22.9161 10.7252 22.8616 10.754 22.8274 10.8016C22.7339 10.931 22.5575 11.0386 22.3274 11.0386H20.5941C20.5071 11.0386 20.4245 11.0623 20.3533 11.1139C20.282 11.1655 20.2187 11.2577 20.2187 11.3669V11.5645C20.2179 11.5656 20.2163 11.5687 20.2089 11.5744C20.1919 11.5874 20.1586 11.6012 20.1214 11.6012H18.628L18.6294 11.4765V11.4751V11.4742C18.6294 11.2468 18.5134 11.0403 18.3344 10.9097L18.3316 10.9074L18.3293 10.906L17.6764 10.4634L17.6755 10.4624L17.6745 10.462C17.5706 10.3933 17.4544 10.3608 17.3448 10.3632C17.3082 10.364 17.2724 10.3689 17.238 10.3773C17.1003 10.411 16.9882 10.498 16.9158 10.6092C16.771 10.8315 16.8043 11.1829 17.0828 11.382L17.389 11.6162L17.3914 11.6181L17.3937 11.6195C17.4581 11.6656 17.4939 11.7213 17.4939 11.7367L17.4864 12.2329V12.2343V12.2357C17.4864 12.2418 17.4855 12.2433 17.485 12.2456C17.4764 12.2455 17.4599 12.2436 17.4257 12.2324C17.3533 12.2087 17.2983 12.1781 17.2131 12.1459C17.1278 12.1137 17.0182 12.088 16.8772 12.088C16.629 12.088 16.425 12.2001 16.2973 12.3491C16.2525 12.4013 16.216 12.4572 16.1872 12.5151V6.71455ZM12.3909 7.43044V14.8557H15.8109V17.0476H12.3909V24.8105C11.6002 24.4818 10.8638 24.0486 10.1994 23.5278V17.0476H6.63642C6.60662 16.7429 6.59126 16.4339 6.59126 16.1214C6.59126 15.6921 6.6202 15.2697 6.67593 14.8557H10.1994V8.71361C10.8638 8.19258 11.6002 7.75929 12.3909 7.43044ZM18.7686 8.87682C18.6149 8.87682 18.4901 9.00157 18.4901 9.15528C18.4901 9.30899 18.6149 9.43374 18.7686 9.43374C18.9223 9.43374 19.047 9.30899 19.047 9.15528C19.047 9.00157 18.9223 8.87682 18.7686 8.87682ZM19.4779 8.87682C19.3242 8.87682 19.1994 9.00157 19.1994 9.15528C19.1994 9.30899 19.3242 9.43374 19.4779 9.43374C19.6316 9.43374 19.7564 9.30899 19.7564 9.15528C19.7564 9.00157 19.6316 8.87682 19.4779 8.87682ZM20.1867 8.87682C20.033 8.87682 19.9083 9.00157 19.9083 9.15528C19.9083 9.30899 20.033 9.43374 20.1867 9.43374C20.3405 9.43374 20.4652 9.30899 20.4652 9.15528C20.4652 9.00157 20.3405 8.87682 20.1867 8.87682ZM20.8956 8.87682C20.7419 8.87682 20.6171 9.00157 20.6171 9.15528C20.6171 9.30899 20.7419 9.43374 20.8956 9.43374C21.0493 9.43374 21.174 9.30899 21.174 9.15528C21.174 9.00157 21.0493 8.87682 20.8956 8.87682ZM21.6049 8.87682C21.4512 8.87682 21.3264 9.00157 21.3264 9.15528C21.3264 9.30899 21.4512 9.43374 21.6049 9.43374C21.7586 9.43374 21.8834 9.30899 21.8834 9.15528C21.8834 9.00157 21.7586 8.87682 21.6049 8.87682ZM9.82315 9.02499V14.4794H6.73425C7.1151 12.3171 8.23486 10.4088 9.82315 9.02499ZM18.5687 9.60448V10.056H21.8048V9.60448H18.5687ZM18.5687 10.2122V10.6637H21.8048V10.2122H18.5687ZM27.579 10.2141L25.0282 11.2494L25.7484 12.93L26.4233 12.6449L26.0485 11.7893L26.3636 11.6393L26.7239 12.4648L27.3387 12.2094L26.9939 11.4145L27.294 11.2795L27.6538 12.1346L28.2841 11.8796L27.579 10.2141ZM4.27612 10.5292L3.91629 11.3241L6.40688 12.4798L7.20227 10.8589L6.58703 10.5438L6.10678 11.3843L4.27612 10.5292ZM17.3556 10.7385C17.3853 10.7368 17.4199 10.7446 17.4671 10.7757L18.1181 11.2174C18.1992 11.2765 18.2531 11.3859 18.2531 11.4742L18.2455 12.0843V12.0852V12.0866C18.2455 12.3269 18.3671 12.5316 18.524 12.6746C18.6165 12.7589 18.7225 12.8254 18.8359 12.866C18.7225 12.9067 18.6165 12.9732 18.524 13.0574C18.3671 13.2004 18.2455 13.4051 18.2455 13.6454V13.6468V13.6478L18.2531 14.2602C18.2531 14.3484 18.1936 14.4592 18.1124 14.5184L17.4652 14.9573C17.4023 14.9988 17.3638 14.9982 17.3274 14.9892C17.2909 14.9803 17.2552 14.9544 17.231 14.9173C17.1825 14.8429 17.1615 14.7563 17.3015 14.6562L17.3039 14.6543L17.3062 14.6525L17.6176 14.4149C17.7229 14.3396 17.8702 14.213 17.8702 13.9954V13.9939V13.9925L17.8627 13.4935C17.8627 13.387 17.8244 13.2668 17.7168 13.1854C17.6093 13.104 17.4556 13.0939 17.3086 13.1421C17.2036 13.1765 17.135 13.2135 17.08 13.2343C17.025 13.2551 16.9784 13.2677 16.8772 13.2677C16.7354 13.2677 16.6484 13.2144 16.5828 13.1379C16.5172 13.0614 16.4835 12.9548 16.4835 12.8848V12.8472C16.4835 12.7772 16.5172 12.6706 16.5828 12.5941C16.6484 12.5176 16.7354 12.4643 16.8772 12.4643C16.9784 12.4643 17.025 12.4769 17.08 12.4977C17.135 12.5185 17.2036 12.5555 17.3086 12.5899C17.4556 12.6381 17.6093 12.628 17.7168 12.5466C17.8244 12.4652 17.8627 12.3422 17.8627 12.2357L17.8702 11.7395V11.7381V11.7367C17.8702 11.5191 17.7182 11.3891 17.6129 11.3138L17.3062 11.0796L17.3039 11.0777L17.3015 11.0758C17.1615 10.9757 17.1825 10.8891 17.231 10.8147C17.2552 10.7776 17.2909 10.7517 17.3274 10.7428C17.3365 10.7405 17.3457 10.7391 17.3556 10.7385ZM23.0104 11.1567C23.3705 11.3921 23.744 11.6578 24.0362 12.0208C24.3642 12.4281 24.5964 12.9522 24.5964 13.7249C24.5964 15.1765 23.2408 16.3425 21.937 16.3425H18.786C18.6964 16.3425 18.6049 16.3835 18.5494 16.4469C18.4939 16.5103 18.4717 16.5868 18.4723 16.66C18.4729 16.7331 18.4964 16.8079 18.5513 16.8702C18.6061 16.9326 18.6963 16.9742 18.786 16.9742H21.8622C22.9682 16.9742 23.5579 17.686 23.5579 18.5264C23.5579 19.3454 22.9454 20.1153 21.8697 20.1153H18.6999C18.6231 20.1153 18.5415 20.1501 18.4911 20.2061C18.4407 20.262 18.4196 20.3301 18.42 20.3952C18.4204 20.4602 18.4416 20.5272 18.4915 20.5824C18.5414 20.6375 18.6228 20.6727 18.6999 20.6727H21.0593C21.5671 20.6727 21.9991 21.1676 21.9991 21.6402C21.9991 21.8799 21.9309 22.1012 21.7803 22.2621C21.6298 22.4229 21.3891 22.5396 20.9845 22.5396H19.5696C19.5132 22.5396 19.4539 22.5519 19.3994 22.5913C19.3448 22.6307 19.3001 22.706 19.3025 22.7842C19.3048 22.8623 19.3498 22.9294 19.4022 22.9667C19.4546 23.004 19.513 23.0175 19.5696 23.0175H20.508C20.6404 23.0175 20.7383 23.0754 20.8156 23.1694C20.893 23.2634 20.9379 23.3952 20.9379 23.5005C20.9379 23.6317 20.8895 23.7529 20.8039 23.8288C20.7483 23.8781 20.6716 23.9123 20.5663 23.9206C20.5715 23.8664 20.5724 23.805 20.5362 23.7315C20.4933 23.6443 20.3736 23.5748 20.2719 23.5748H19.7089C19.5128 23.5748 19.2963 23.5009 19.1364 23.3613C18.9765 23.2217 18.8669 23.0239 18.8669 22.739C18.8669 22.4771 18.9764 22.2903 19.1317 22.1562C19.287 22.0221 19.4934 21.9521 19.6454 21.9521H21.0292C21.0916 21.9521 21.1525 21.9413 21.2107 21.906C21.2689 21.8707 21.3289 21.7963 21.3288 21.7037C21.3287 21.6112 21.2684 21.5367 21.2103 21.5015C21.1521 21.4662 21.0916 21.4558 21.0292 21.4558H18.8613C18.0271 21.4558 17.5626 20.8656 17.5626 20.2291C17.5626 19.6613 18.0489 18.9883 18.786 18.9883H22.0122C22.1001 18.9883 22.1904 18.9473 22.2441 18.8848C22.2978 18.8223 22.319 18.7479 22.3184 18.6769C22.3179 18.6059 22.2959 18.5329 22.2427 18.4714C22.1895 18.4098 22.1003 18.3684 22.0122 18.3684H18.7263C17.8076 18.3684 17.0809 17.6872 17.0809 16.6586C17.0809 15.7994 17.784 14.9182 18.8236 14.9182H21.802C21.9644 14.9182 22.1101 14.8452 22.1994 14.7385C22.2888 14.6319 22.3286 14.5005 22.3293 14.3712C22.3299 14.2418 22.2914 14.1093 22.2018 14.0019C22.1122 13.8946 21.9654 13.8218 21.802 13.8218H18.6242L18.6218 13.6435C18.6218 13.5335 18.6816 13.4228 18.7775 13.3354C18.8734 13.2481 19.0024 13.1981 19.0814 13.1981H20.8622C20.9311 13.1981 20.9993 13.1822 21.0663 13.136C21.1334 13.0898 21.1957 12.9903 21.1957 12.866C21.1957 12.738 21.1576 12.6732 21.0663 12.596C20.9993 12.5498 20.9311 12.5339 20.8622 12.5339H19.0814C19.0025 12.5339 18.8734 12.4839 18.7775 12.3966C18.6816 12.3092 18.6218 12.1966 18.6218 12.0866L18.6232 11.9775H20.7968C20.9171 11.9775 21.0269 11.9389 21.1134 11.8726C21.1998 11.8063 21.2705 11.7045 21.2705 11.5763V11.4149H22.3274C22.6016 11.4149 22.8398 11.3127 23.0104 11.1567ZM24.928 13.1501C25.2387 14.0841 25.4069 15.0832 25.4069 16.1214C25.4069 19.4077 23.7216 22.3002 21.1679 23.9822C21.2676 23.8404 21.3142 23.6694 21.3142 23.5005C21.3142 23.2994 21.242 23.0954 21.1063 22.9304C21.1009 22.9239 21.0945 22.918 21.0889 22.9116C21.5169 22.891 21.8428 22.7461 22.055 22.5193C22.2845 22.2742 22.3754 21.9521 22.3754 21.6402C22.3754 21.1795 22.1174 20.7361 21.7267 20.4916H21.8697C23.1303 20.4916 23.9342 19.5393 23.9342 18.5264C23.9342 17.6676 23.3755 16.8982 22.4464 16.6689C23.7805 16.4183 24.9727 15.2178 24.9727 13.7249C24.9727 13.5205 24.9569 13.3294 24.928 13.1501ZM16.1872 13.2169C16.216 13.2748 16.2525 13.3307 16.2973 13.3829C16.425 13.532 16.629 13.644 16.8772 13.644C17.0182 13.644 17.1278 13.6183 17.2131 13.5861C17.2983 13.5539 17.3533 13.5233 17.4257 13.4996C17.4599 13.4884 17.4764 13.4865 17.485 13.4864C17.4855 13.4888 17.4864 13.4904 17.4864 13.4963V13.4977V13.4991L17.4939 13.9982C17.4939 14.0135 17.4581 14.0664 17.3937 14.1125L17.3914 14.1139L17.389 14.1158L17.0781 14.3538C16.7996 14.5529 16.771 14.9005 16.9158 15.1228C16.9774 15.2174 17.0679 15.2942 17.1783 15.3359C16.8769 15.7132 16.7046 16.1847 16.7046 16.6586C16.7046 17.7037 17.3824 18.4961 18.2813 18.6948C17.608 18.9248 17.1863 19.5974 17.1863 20.2291C17.1863 21.0575 17.8423 21.8321 18.8613 21.8321H18.9351C18.9186 21.845 18.9017 21.8573 18.8857 21.8712C18.6599 22.0661 18.4906 22.3667 18.4906 22.739C18.4906 23.1259 18.6542 23.4404 18.8885 23.6449C19.1229 23.8495 19.4213 23.9511 19.7089 23.9511H20.1802C20.1704 23.9855 20.1595 24.0175 20.1595 24.0175C20.1364 24.0697 20.1383 24.1295 20.1646 24.1802C20.191 24.2309 20.2389 24.2669 20.2949 24.278C20.4296 24.3047 20.5569 24.3065 20.6722 24.287C19.3462 25.0472 17.8175 25.4941 16.1872 25.5259V13.2169ZM6.04705 13.5447L3.1209 14.5052L3.016 15.3754L5.79211 16.8759L5.77706 15.8707L5.35749 15.6764L5.42052 14.6431L5.91205 14.5203L6.04705 13.5447ZM27.564 13.6351C26.5846 13.6351 26.0936 14.4377 26.0936 15.2404C26.0936 16.0432 26.6744 16.8462 27.564 16.8462C28.4531 16.8463 29.0494 16.1182 29.0494 15.2404C29.0494 14.3776 28.5284 13.6351 27.564 13.6351ZM18.6284 14.1981H21.802C21.8663 14.1981 21.8899 14.2155 21.913 14.2432C21.9361 14.2709 21.9532 14.3186 21.953 14.3693C21.9527 14.42 21.9349 14.4683 21.9111 14.4968C21.8873 14.5252 21.8635 14.5419 21.802 14.5419H18.8236C18.7329 14.5419 18.6443 14.5477 18.5579 14.5584C18.6035 14.4665 18.6294 14.3646 18.6294 14.2578V14.2569V14.2555L18.6284 14.1981ZM27.5828 14.5052C28.0145 14.5052 28.2662 14.9084 28.2662 15.2404C28.2662 15.565 28.0052 15.9756 27.5828 15.9756C27.1602 15.9756 26.9144 15.6193 26.9144 15.2404C26.9144 14.8615 27.1511 14.5052 27.5828 14.5052ZM4.76201 14.8077L4.72626 15.3834L3.93134 15.0151L4.76201 14.8077ZM6.68063 17.4239H9.82315V23.2164C8.15224 21.7612 6.99966 19.7255 6.68063 17.4239ZM12.7672 17.4239H15.8109V25.5259C14.7433 25.5049 13.7193 25.3056 12.7672 24.9573V17.4239Z" fill="url(#paint3_linear_601_54)"/>
<path fill-rule="evenodd" clip-rule="evenodd" d="M17.3556 10.7385C17.3853 10.7368 17.4199 10.7446 17.4671 10.7757L18.118 11.2174C18.1992 11.2765 18.253 11.3859 18.253 11.4742L18.2455 12.0843V12.0852V12.0866C18.2455 12.3269 18.367 12.5316 18.524 12.6746C18.6165 12.7589 18.7225 12.8254 18.8358 12.866C18.7225 12.9067 18.6165 12.9732 18.524 13.0574C18.367 13.2004 18.2455 13.4051 18.2455 13.6454V13.6468V13.6478L18.253 14.2602C18.253 14.3484 18.1935 14.4592 18.1124 14.5184L17.4652 14.9573C17.4023 14.9988 17.3638 14.9982 17.3274 14.9892C17.2909 14.9803 17.2551 14.9544 17.2309 14.9173C17.1825 14.8429 17.1614 14.7563 17.3015 14.6562L17.3038 14.6543L17.3062 14.6525L17.6176 14.4149C17.7229 14.3396 17.8702 14.213 17.8702 13.9954V13.9939V13.9925L17.8626 13.4935C17.8626 13.387 17.8244 13.2668 17.7168 13.1854C17.6093 13.104 17.4556 13.0939 17.3085 13.1421C17.2035 13.1765 17.1349 13.2135 17.0799 13.2343C17.025 13.2551 16.9784 13.2677 16.8772 13.2677C16.7354 13.2677 16.6484 13.2144 16.5828 13.1379C16.5172 13.0614 16.4835 12.9548 16.4835 12.8848V12.8472C16.4835 12.7772 16.5172 12.6706 16.5828 12.5941C16.6484 12.5176 16.7354 12.4643 16.8772 12.4643C16.9784 12.4643 17.025 12.4769 17.0799 12.4977C17.1349 12.5185 17.2035 12.5555 17.3085 12.5899C17.4556 12.6381 17.6093 12.628 17.7168 12.5466C17.8244 12.4652 17.8626 12.3422 17.8626 12.2357L17.8702 11.7395V11.7381V11.7367C17.8702 11.5191 17.7182 11.3891 17.6129 11.3138L17.3062 11.0796L17.3038 11.0777L17.3015 11.0758C17.1614 10.9757 17.1825 10.8891 17.2309 10.8147C17.2551 10.7776 17.2909 10.7517 17.3274 10.7428C17.3365 10.7405 17.3457 10.7391 17.3556 10.7385Z" fill="#9D0D16"/>
<path fill-rule="evenodd" clip-rule="evenodd" d="M23.0104 11.1567C23.3705 11.3921 23.744 11.6578 24.0362 12.0208C24.3642 12.4281 24.5965 12.9523 24.5965 13.7249C24.5965 15.1765 23.2409 16.3425 21.937 16.3425H18.786C18.6965 16.3425 18.6049 16.3835 18.5494 16.4469C18.4939 16.5103 18.4717 16.5868 18.4723 16.66C18.4729 16.7331 18.4964 16.8079 18.5513 16.8702C18.6062 16.9326 18.6963 16.9742 18.786 16.9742H21.8622C22.9682 16.9742 23.5579 17.686 23.5579 18.5264C23.5579 19.3454 22.9454 20.1153 21.8697 20.1153H18.6999C18.6231 20.1153 18.5415 20.1501 18.4911 20.2061C18.4407 20.262 18.4197 20.3301 18.4201 20.3952C18.4205 20.4602 18.4417 20.5272 18.4916 20.5824C18.5415 20.6375 18.6228 20.6727 18.6999 20.6727H21.0593C21.5671 20.6727 21.9991 21.1676 21.9991 21.6402C21.9991 21.8799 21.931 22.1012 21.7804 22.2621C21.6298 22.4229 21.3892 22.5396 20.9845 22.5396H19.5696C19.5133 22.5396 19.4539 22.5519 19.3994 22.5913C19.3448 22.6307 19.3002 22.706 19.3025 22.7842C19.3048 22.8623 19.3498 22.9294 19.4022 22.9667C19.4546 23.004 19.5131 23.0175 19.5696 23.0175H20.508C20.6404 23.0175 20.7383 23.0754 20.8156 23.1694C20.893 23.2634 20.9379 23.3952 20.9379 23.5005C20.9379 23.6317 20.8895 23.7529 20.8039 23.8288C20.7484 23.8781 20.6716 23.9123 20.5664 23.9206C20.5715 23.8664 20.5724 23.805 20.5362 23.7315C20.4933 23.6443 20.3736 23.5748 20.2719 23.5748H19.7089C19.5128 23.5748 19.2964 23.5009 19.1364 23.3613C18.9765 23.2217 18.8669 23.0239 18.8669 22.739C18.8669 22.4771 18.9764 22.2903 19.1317 22.1562C19.2871 22.0221 19.4934 21.9521 19.6454 21.9521H21.0292C21.0917 21.9521 21.1525 21.9413 21.2108 21.906C21.269 21.8707 21.3289 21.7963 21.3288 21.7037C21.3287 21.6112 21.2684 21.5367 21.2103 21.5015C21.1521 21.4662 21.0916 21.4558 21.0292 21.4558H18.8613C18.0271 21.4558 17.5626 20.8656 17.5626 20.2291C17.5626 19.6613 18.0489 18.9883 18.786 18.9883H22.0123C22.1001 18.9883 22.1904 18.9473 22.2441 18.8848C22.2979 18.8223 22.319 18.7479 22.3185 18.6769C22.318 18.6059 22.2959 18.5329 22.2427 18.4714C22.1896 18.4098 22.1003 18.3684 22.0123 18.3684H18.7263C17.8077 18.3684 17.0809 17.6872 17.0809 16.6586C17.0809 15.7994 17.784 14.9182 18.8236 14.9182H21.802C21.9644 14.9182 22.1101 14.8452 22.1995 14.7385C22.2888 14.6319 22.3286 14.5005 22.3293 14.3712C22.33 14.2418 22.2914 14.1093 22.2018 14.0019C22.1122 13.8946 21.9655 13.8218 21.802 13.8218H18.6242L18.6219 13.6435C18.6219 13.5335 18.6816 13.4228 18.7775 13.3354C18.8735 13.2481 19.0025 13.1981 19.0814 13.1981H20.8622C20.9311 13.1981 20.9993 13.1822 21.0664 13.136C21.1334 13.0898 21.1957 12.9903 21.1957 12.866C21.1957 12.738 21.1576 12.6732 21.0664 12.596C20.9993 12.5498 20.9311 12.5339 20.8622 12.5339H19.0814C19.0025 12.5339 18.8735 12.4839 18.7775 12.3966C18.6816 12.3092 18.6219 12.1966 18.6219 12.0866L18.6233 11.9775H20.7968C20.9171 11.9775 21.0269 11.9389 21.1134 11.8726C21.1998 11.8063 21.2705 11.7045 21.2705 11.5763V11.4149H22.3274C22.6016 11.4149 22.8398 11.3127 23.0104 11.1567Z" fill="url(#paint4_linear_601_54)"/>
<defs>
<linearGradient id="paint0_linear_601_54" x1="9.89118" y1="9.94315" x2="15.9473" y2="26.3885" gradientUnits="userSpaceOnUse">
<stop stop-color="white"/>
<stop offset="1" stop-color="#53EEEF"/>
</linearGradient>
<linearGradient id="paint1_linear_601_54" x1="15.647" y1="7.35713" x2="21.9857" y2="25.5257" gradientUnits="userSpaceOnUse">
<stop stop-color="#2F7FBE"/>
<stop offset="1" stop-color="#225D8B"/>
</linearGradient>
<linearGradient id="paint2_linear_601_54" x1="8.32298" y1="9.3792" x2="16.6584" y2="25.6683" gradientUnits="userSpaceOnUse">
<stop stop-color="#D50D16"/>
<stop offset="0.5" stop-color="#880D16"/>
<stop offset="1" stop-color="#520D16"/>
</linearGradient>
<linearGradient id="paint3_linear_601_54" x1="6.6773" y1="7.27826" x2="25.0882" y2="23.0034" gradientUnits="userSpaceOnUse">
<stop stop-color="#F8FFBF"/>
<stop offset="0.508929" stop-color="#F8E45E"/>
<stop offset="0.75" stop-color="#F8D35E"/>
<stop offset="1" stop-color="#EE8E0A"/>
</linearGradient>
<linearGradient id="paint4_linear_601_54" x1="18.4614" y1="12.497" x2="22.1957" y2="23.6006" gradientUnits="userSpaceOnUse">
<stop stop-color="#157031"/>
<stop offset="1" stop-color="#0F5324"/>
</linearGradient>
</defs>
</svg>
